<?xml version="1.0" encoding="UTF-8" standalone="no"?>
<!-- Created with Inkscape (http://www.inkscape.org/) -->

<svg
   version="1.1"
   id="svg1"
   width="320"
   height="320"
   viewBox="0 0 320 320"
   sodipodi:docname="aluminium.svg"
   inkscape:version="1.4 (86a8ad7, 2024-10-11)"
   inkscape:export-filename="aluminium.png"
   inkscape:export-xdpi="96"
   inkscape:export-ydpi="96"
   xmlns:inkscape="http://www.inkscape.org/namespaces/inkscape"
   xmlns:sodipodi="http://sodipodi.sourceforge.net/DTD/sodipodi-0.dtd"
   xmlns="http://www.w3.org/2000/svg"
   xmlns:svg="http://www.w3.org/2000/svg">
  <defs
     id="defs1" />
  <sodipodi:namedview
     id="namedview1"
     pagecolor="#ffffff"
     bordercolor="#000000"
     borderopacity="0.25"
     inkscape:showpageshadow="2"
     inkscape:pageopacity="0.0"
     inkscape:pagecheckerboard="0"
     inkscape:deskcolor="#d1d1d1"
     showguides="true"
     inkscape:zoom="1.7832349"
     inkscape:cx="123.65168"
     inkscape:cy="185.89811"
     inkscape:window-width="1920"
     inkscape:window-height="1009"
     inkscape:window-x="-8"
     inkscape:window-y="-8"
     inkscape:window-maximized="1"
     inkscape:current-layer="g1">
    <sodipodi:guide
       position="49.348518,103.53946"
       orientation="1,0"
       id="guide1"
       inkscape:locked="false" />
    <sodipodi:guide
       position="350.48663,77.74364"
       orientation="0,-1"
       id="guide2"
       inkscape:locked="false" />
  </sodipodi:namedview>
  <g
     inkscape:groupmode="layer"
     inkscape:label="Image"
     id="g1">
    <path
       style="fill:#999999;stroke-width:0.135178"
       d="M 138.45609,163.58492 V 97.888507 h 65.69642 65.6964 v 65.696413 65.69642 h -65.6964 -65.69642 z m 115.6784,62.45239 h 12.47015 v -62.45239 -62.45214 h -62.45213 -62.45216 l -8e-4,38.3905 c -4.1e-4,21.11477 -8.2e-4,43.50022 -8.2e-4,49.74543 0,6.24521 4.1e-4,17.07264 8.2e-4,24.06095 l 8e-4,12.70603 12.74051,0.0345 c 7.00728,0.019 29.49918,0.0194 49.98199,9.3e-4 20.48283,-0.0184 42.85306,-0.0337 49.71164,-0.0338 z m -62.91418,-9.71927 c -1.21594,-0.3131 -2.21091,-1.28455 -2.77647,-2.71085 -0.25664,-0.64724 -0.29728,-1.00916 -0.29677,-2.64244 9.2e-4,-2.96976 0.46246,-4.40519 1.87273,-5.82453 0.66715,-0.67145 0.97945,-0.87572 1.69635,-1.1096 0.48326,-0.15766 1.25883,-0.32745 1.72351,-0.37732 l 0.84486,-0.0907 v 0.74217 0.74216 l -0.78573,0.0712 c -1.26385,0.1146 -2.3692,0.79534 -3.05934,1.88413 -0.22105,0.34873 -0.65064,1.74218 -0.56386,1.82896 0.0231,0.0231 0.2065,-0.0874 0.40759,-0.24562 0.85521,-0.6727 2.31738,-0.83351 3.51264,-0.38629 0.91886,0.34378 1.57062,1.03969 1.972,2.10557 0.4282,1.13711 0.35024,3.05228 -0.16492,4.0514 -0.40336,0.78228 -1.09569,1.44546 -1.83032,1.7532 -0.59997,0.25133 -1.95572,0.36209 -2.55227,0.20848 z m 2.12001,-1.6697 c 0.63601,-0.43222 0.99648,-1.212 1.05752,-2.28763 0.0648,-1.14082 -0.38442,-2.24943 -1.08425,-2.6761 -0.93379,-0.56932 -2.4218,-0.22992 -3.14416,0.71714 -0.28272,0.37067 -0.34577,0.60224 -0.34577,1.26992 0,1.20676 0.33674,2.10156 1.03213,2.74254 0.52982,0.48838 0.65131,0.53828 1.31047,0.53828 0.53068,0 0.84714,-0.082 1.17406,-0.30415 z m 21.76159,1.61346 c -1.3388,-0.38633 -1.91538,-0.8352 -2.46321,-1.91761 -0.59722,-1.18001 -0.34958,-2.77092 0.58998,-3.79022 0.30051,-0.32601 0.66456,-0.63026 0.80901,-0.67611 0.24295,-0.0771 0.23444,-0.10509 -0.11385,-0.37372 -0.87156,-0.67219 -1.28893,-1.51365 -1.28893,-2.59857 0,-1.5419 0.80356,-2.6697 2.27166,-3.18829 1.55588,-0.54958 3.60733,-0.068 4.45731,1.04637 1.10233,1.44524 0.85017,3.70983 -0.51743,4.64693 l -0.46106,0.31592 0.55335,0.42205 c 1.04486,0.79694 1.52952,1.88548 1.3849,3.11043 -0.15872,1.34436 -1.13177,2.54981 -2.35262,2.91453 -0.79697,0.23808 -2.2004,0.28128 -2.86911,0.0883 z m 2.50032,-1.56948 c 0.2228,-0.12516 0.54741,-0.43718 0.72139,-0.69339 0.2694,-0.39674 0.3091,-0.59743 0.26779,-1.35352 -0.057,-1.0424 -0.41107,-1.60237 -1.22801,-1.94194 -1.67014,-0.69422 -3.34323,0.31276 -3.34271,2.01185 2.7e-4,0.78927 0.31392,1.49312 0.8359,1.87567 0.68427,0.5015 1.95023,0.54822 2.74564,0.10133 z m -0.2948,-5.84405 c 0.97947,-0.51881 1.33432,-1.84704 0.78125,-2.92428 -0.71304,-1.38884 -2.90802,-1.34452 -3.58368,0.0723 -0.26509,0.55591 -0.27606,1.41581 -0.0242,1.89982 0.20937,0.4024 0.71143,0.89779 1.02668,1.01303 0.37149,0.1358 1.50074,0.0976 1.79999,-0.061 z m -39.17081,7.32082 c -0.0196,-0.0372 -0.0424,-0.29601 -0.0505,-0.57519 -0.0132,-0.45472 0.10286,-0.63787 1.11376,-1.75732 3.509,-3.88574 4.17041,-4.67878 4.56347,-5.4717 0.35043,-0.70693 0.40701,-0.95334 0.35153,-1.53082 -0.11627,-1.20999 -0.9658,-1.9507 -2.21657,-1.93261 -1.19607,0.0173 -2.08343,0.77331 -2.28113,1.94352 l -0.0908,0.53756 h -0.79918 -0.79919 l 9.3e-4,-0.50692 c 9.2e-4,-0.48463 0.46321,-1.62658 0.83614,-2.06696 0.74545,-0.88026 2.21663,-1.41555 3.61545,-1.31546 2.10223,0.15041 3.40232,1.39315 3.41265,3.26212 0.01,1.79991 -0.8467,3.09641 -4.72405,7.14955 l -0.87287,0.91245 h 3.12375 3.12378 v 0.67206 0.67206 l -4.13593,0.0377 c -2.27477,0.0207 -4.15201,0.007 -4.17166,-0.03 z m 20.20324,-0.13518 c -0.32341,-0.32341 -0.34991,-0.90769 -0.0599,-1.3217 0.27495,-0.39255 1.25676,-0.42534 1.59352,-0.0532 0.33475,0.36989 0.2916,1.17688 -0.0767,1.43485 -0.42197,0.29556 -1.13053,0.26643 -1.45687,-0.0599 z m 5.81265,-0.45317 v -0.72588 l 0.79259,-0.0719 c 1.41472,-0.12828 2.60089,-0.83398 3.12328,-1.85817 0.193,-0.37837 0.54499,-1.65308 0.54499,-1.9736 0,-0.0373 -0.1977,0.0802 -0.43932,0.26105 -0.85531,0.64024 -1.34748,0.81619 -2.26424,0.80946 -2.20058,-0.0162 -3.51462,-1.57637 -3.51462,-4.17304 0,-2.6459 1.52109,-4.38632 3.83356,-4.38632 2.19596,0 3.6742,1.54702 3.97052,4.15526 0.13932,1.22634 -0.0105,3.86028 -0.26776,4.70882 -0.46191,1.52324 -1.30118,2.66635 -2.35948,3.21362 -0.54691,0.2828 -1.73952,0.59246 -2.64225,0.68601 l -0.77727,0.0806 z m 3.09347,-5.21633 c 0.28288,-0.14432 0.7142,-0.49003 0.95848,-0.76825 0.43699,-0.49771 0.443,-0.52233 0.3728,-1.52872 -0.0914,-1.31074 -0.39862,-2.06008 -1.08556,-2.64807 -0.47063,-0.40284 -0.6471,-0.46997 -1.23448,-0.46954 -1.29555,9.3e-4 -2.08436,0.84506 -2.20602,2.36063 -0.0378,0.4715 -0.0291,1.069 0.0194,1.32776 0.10898,0.58088 0.75479,1.56508 1.18267,1.80235 0.46796,0.2595 1.40491,0.22369 1.99266,-0.0761 z m 18.67007,0.63413 c 4e-5,-2.92904 -0.0525,-5.23814 -0.11898,-5.23814 -0.0999,0 -2.09793,0.70316 -2.88865,1.01658 -0.20842,0.0826 -0.23656,0.003 -0.23656,-0.66898 v -0.76274 l 0.5745,-0.24458 c 1.22318,-0.52071 4.03897,-1.51985 4.16495,-1.47786 0.0841,0.028 0.13253,2.33647 0.13253,6.30993 v 6.26577 l -0.81394,0.019 -0.81394,0.0191 z m -42.53447,-15.91422 c -1.27225,-0.27111 -2.32821,-1.09136 -2.89984,-2.25256 -0.32025,-0.65054 -0.32369,-0.70291 -0.3648,-5.55693 l -0.0415,-4.90019 h 0.88637 0.88636 l 0.003,4.69742 c 0.004,5.37254 0.0264,5.50422 1.0836,6.20385 0.66027,0.43694 1.86868,0.57831 2.79997,0.32754 0.74435,-0.20043 1.44738,-0.92729 1.64113,-1.69673 0.0946,-0.37574 0.14979,-2.24349 0.14979,-5.06994 v -4.47504 l 0.84487,0.0402 0.84485,0.0402 v 4.73122 c 0,3.44536 -0.0468,4.88536 -0.1722,5.29837 -0.26402,0.86958 -1.36591,1.99217 -2.30192,2.34519 -0.86267,0.32536 -2.48243,0.45423 -3.35965,0.26731 z m 43.93817,-0.0498 c -1.7198,-0.43942 -2.7008,-1.46382 -3.02419,-3.15797 -0.0956,-0.50089 -0.13499,-2.34145 -0.1093,-5.10867 l 0.0401,-4.32569 0.83847,-0.0401 0.83847,-0.04 0.0402,4.84905 0.0402,4.84906 0.32576,0.47515 c 0.17916,0.26132 0.53968,0.62173 0.80116,0.8009 0.4122,0.28245 0.63079,0.32575 1.64419,0.32575 1.03925,0 1.22903,-0.0399 1.7123,-0.35968 1.03884,-0.68746 1.05379,-0.77156 1.09762,-6.16897 l 0.0388,-4.77134 0.83991,0.0401 0.83991,0.0401 v 4.8664 c 0,4.79038 -0.005,4.87616 -0.30773,5.49098 -0.43733,0.88762 -1.27558,1.66278 -2.16699,2.00391 -0.94922,0.36326 -2.55518,0.4696 -3.48885,0.23104 z m -68.58699,-0.0796 c 0,-0.0695 0.78347,-2.18333 1.74106,-4.69742 0.95759,-2.5141 2.01719,-5.30105 2.35467,-6.19322 l 0.61359,-1.62213 h 0.77288 0.77287 l 0.51722,1.35177 c 0.28447,0.74348 1.36214,3.5557 2.39482,6.24938 1.03269,2.69367 1.84603,4.92917 1.80742,4.96778 -0.0386,0.0386 -0.44023,0.0699 -0.89252,0.0696 l -0.82233,-5.3e-4 -0.58607,-1.6812 -0.58605,-1.68119 -2.59007,0.0258 -2.59008,0.0258 -0.59441,1.65593 -0.59442,1.65593 h -0.85929 c -0.47261,-3e-5 -0.85929,-0.0569 -0.85929,-0.12638 z m 7.08506,-5.92285 c -1.15957,-3.22955 -1.60888,-4.36379 -1.66329,-4.19881 -0.0322,0.0975 -0.47442,1.3203 -0.98281,2.71734 -0.50839,1.39704 -0.92434,2.59844 -0.92434,2.66977 0,0.077 0.82117,0.12968 2.02183,0.12968 h 2.02184 z m 5.56852,5.83538 c -0.10716,-0.27926 -0.10716,-11.99981 0,-12.27907 0.062,-0.1615 0.27696,-0.21382 0.87866,-0.21382 h 0.7966 v 5.60988 5.60988 h 2.97392 2.97391 v 0.74347 0.74348 h -3.77052 c -3.31351,0 -3.78046,-0.0259 -3.85257,-0.21382 z m 20.39171,0.0449 c -0.0356,-0.0929 -0.0489,-2.93674 -0.0295,-6.31957 l 0.0352,-6.15058 1.09044,-0.0388 1.09044,-0.0388 2.03106,5.08883 2.03107,5.08883 2.02541,-5.04997 2.02541,-5.04996 1.10506,-0.0393 1.10505,-0.0392 v 6.36527 6.36527 l -0.84486,-0.0402 -0.84486,-0.0402 0.0333,-4.8664 0.0333,-4.8664 -1.18913,2.90632 c -0.65402,1.59848 -1.55105,3.8061 -1.99338,4.90583 l -0.80427,1.9995 -0.6653,-0.0394 -0.6653,-0.0394 -0.71262,-1.7573 c -0.39194,-0.96653 -1.27873,-3.16026 -1.97066,-4.87497 l -1.25805,-3.11764 0.0476,4.90875 0.0476,4.90875 h -0.82915 c -0.53863,0 -0.85184,-0.0592 -0.89393,-0.16897 z m 15.48354,-6.18439 v -6.36625 l 0.84487,0.0402 0.84486,0.0402 v 6.28576 6.28577 l -0.84486,0.0402 -0.84487,0.0402 z m 4.67338,6.23394 c -0.0406,-0.0657 -0.0594,-2.90947 -0.0418,-6.31956 l 0.032,-6.20014 0.83903,-0.0401 0.83905,-0.0401 1.45898,2.23917 c 0.80244,1.23154 2.20335,3.37788 3.11313,4.76963 l 1.65413,2.53046 0.0356,-4.72953 0.0356,-4.72954 0.84486,-0.0402 0.84486,-0.0402 v 6.3598 6.35981 l -0.84486,-0.002 -0.84486,-0.002 -0.76622,-1.18069 c -2.37146,-3.65426 -5.11854,-7.8401 -5.29927,-8.07475 -0.18874,-0.24504 -0.2088,0.1758 -0.21426,4.49467 l -0.006,4.76501 h -0.80308 c -0.4417,0 -0.83631,-0.0537 -0.8769,-0.11941 z m 23.98753,0.0245 c 0.002,-0.0593 -0.0128,-2.90602 -0.0323,-6.32602 l -0.0355,-6.21817 1.09402,-0.0389 1.09403,-0.0389 2.02765,5.07004 c 1.9134,4.78435 2.0371,5.04932 2.19534,4.70257 0.0922,-0.20209 0.61702,-1.4928 1.1662,-2.86824 0.54918,-1.37543 1.38817,-3.47406 1.86442,-4.66363 l 0.86593,-2.16284 1.09672,-0.0393 1.09672,-0.0392 v 6.36527 6.36527 l -0.84486,-0.0402 -0.84487,-0.0402 0.0284,-4.79881 c 0.0252,-4.2754 0.007,-4.75459 -0.16762,-4.39329 -0.1078,0.22305 -0.74764,1.77422 -1.42185,3.44704 -0.67421,1.67283 -1.48082,3.66679 -1.79246,4.43102 l -0.56661,1.38953 -0.65195,-0.0377 -0.65194,-0.0377 -1.81718,-4.46087 c -0.99945,-2.45347 -1.85339,-4.59831 -1.89762,-4.76629 -0.0442,-0.16799 -0.14388,-0.34465 -0.22143,-0.39258 -0.0956,-0.059 -0.11338,0.19195 -0.0553,0.77856 0.0472,0.47613 0.0924,2.66017 0.10064,4.85344 l 0.0149,3.98774 -0.82331,0.0402 c -0.45282,0.0221 -0.82185,-0.008 -0.82008,-0.0676 z m -63.6032,-25.82546 c 0.0537,-0.13011 0.38831,-1.02735 0.74352,-1.99387 0.3552,-0.96653 1.01224,-2.7306 1.46008,-3.92016 0.44783,-1.18956 1.30034,-3.47069 1.89446,-5.06917 1.34284,-3.61287 3.7812,-10.15343 4.88833,-13.11224 0.45903,-1.22674 1.38453,-3.72077 2.05669,-5.54229 0.67216,-1.82152 1.3721,-3.70726 1.55544,-4.19052 0.18333,-0.48326 0.74733,-2.00401 1.25332,-3.37944 0.50598,-1.37543 1.84509,-4.96441 2.97579,-7.97549 1.13071,-3.01108 2.08738,-5.58189 2.12595,-5.71291 0.0656,-0.22271 0.39105,-0.23591 5.0018,-0.20276 l 4.93167,0.0354 2.83133,7.56997 c 1.55723,4.16347 5.8481,15.62993 9.53526,25.48101 3.68717,9.85108 6.73227,17.9871 6.76688,18.08003 0.0498,0.13349 -1.12531,0.16897 -5.59555,0.16897 h -5.6585 l -1.77125,-5.23813 -1.77126,-5.23815 h -9.23827 -9.23826 l -1.74987,5.23815 -1.74988,5.23813 h -5.67269 c -5.34965,0 -5.66711,-0.0134 -5.57499,-0.23656 z m 27.15977,-28.37833 c -1.74426,-5.18081 -3.18776,-9.43601 -3.20777,-9.45602 -0.0331,-0.0332 -5.31327,15.76757 -5.99644,17.94438 l -0.29228,0.93128 h 6.33395 6.33394 z m 24.67974,6.38007 V 124.924 h 4.19052 4.19051 l 0.002,4.49467 c 9.2e-4,2.47206 9.2e-4,12.46339 4e-4,22.20295 l -0.002,17.70829 -4.19087,0.0357 -4.19091,0.0357 z m -64.41222,-28.10529 c -1.644,-0.40416 -2.58216,-1.34493 -2.8107,-2.81855 l -0.0786,-0.50693 h 1.07293 c 0.93152,0 1.07299,0.0312 1.07342,0.23657 9.3e-4,0.41468 0.49262,1.06182 0.98401,1.29501 0.58198,0.27617 1.3057,0.28911 1.91564,0.0342 1.23004,-0.51394 1.37144,-2.48535 0.2337,-3.25846 -0.4202,-0.28553 -0.64821,-0.33504 -1.54309,-0.33504 h -1.05005 v -0.87866 -0.87865 h 0.883 c 1.59613,0 2.28818,-0.55861 2.27257,-1.83438 -0.0152,-1.24265 -0.65675,-1.764 -2.03046,-1.65009 -0.64153,0.0532 -0.81805,0.12731 -1.08625,0.45601 -0.17613,0.21587 -0.35578,0.55977 -0.39921,0.76423 -0.0781,0.36759 -0.0909,0.37174 -1.14963,0.37174 h -1.07065 l 0.092,-0.50692 c 0.20736,-1.14268 0.87424,-1.96773 2.01552,-2.49354 0.54838,-0.25265 0.9054,-0.31103 1.89248,-0.30946 1.43752,0.002 2.18617,0.25182 2.93753,0.97908 1.32448,1.28202 1.15242,3.90989 -0.3105,4.74216 -0.21719,0.12355 -0.39511,0.25506 -0.39537,0.29223 -2.7e-4,0.0372 0.22542,0.18926 0.50153,0.33795 0.28924,0.15577 0.66991,0.54278 0.89816,0.91314 0.33576,0.54477 0.39616,0.78228 0.39616,1.5577 0,1.90628 -1.01991,3.11107 -2.98653,3.52791 -0.8788,0.18628 -1.38192,0.17796 -2.25758,-0.0373 z m -8.84908,-4.3731 c 2.6e-4,-2.36055 -8.2e-4,-4.52411 -0.002,-4.80792 -0.003,-0.58749 0.0687,-0.58629 -1.48969,-0.0247 -1.63813,0.59032 -1.50569,0.62772 -1.45959,-0.41222 l 0.0402,-0.90762 2.29802,-0.85364 c 1.26391,-0.4695 2.40448,-0.85688 2.53459,-0.86083 0.2219,-0.006 0.23656,0.36986 0.23656,6.07581 v 6.083 h -1.0791 -1.0791 z"
       id="path1" />
  </g>
</svg>
