<?xml version="1.0" encoding="UTF-8" standalone="no"?>
<!-- Created with Inkscape (http://www.inkscape.org/) -->

<svg
   version="1.1"
   id="svg1"
   width="320"
   height="320"
   viewBox="0 0 320 320"
   sodipodi:docname="aluminium.svg"
   inkscape:version="1.4 (86a8ad7, 2024-10-11)"
   inkscape:export-filename="image\signature.svg"
   inkscape:export-xdpi="96"
   inkscape:export-ydpi="96"
   xmlns:inkscape="http://www.inkscape.org/namespaces/inkscape"
   xmlns:sodipodi="http://sodipodi.sourceforge.net/DTD/sodipodi-0.dtd"
   xmlns="http://www.w3.org/2000/svg"
   xmlns:svg="http://www.w3.org/2000/svg">
  <defs
     id="defs1" />
  <sodipodi:namedview
     id="namedview1"
     pagecolor="#ffffff"
     bordercolor="#000000"
     borderopacity="0.25"
     inkscape:showpageshadow="2"
     inkscape:pageopacity="0.0"
     inkscape:pagecheckerboard="0"
     inkscape:deskcolor="#d1d1d1"
     showguides="true"
     inkscape:zoom="1.7832349"
     inkscape:cx="145.52205"
     inkscape:cy="128.13791"
     inkscape:window-width="1920"
     inkscape:window-height="1009"
     inkscape:window-x="-8"
     inkscape:window-y="-8"
     inkscape:window-maximized="1"
     inkscape:current-layer="g1">
    <sodipodi:guide
       position="49.348518,103.53946"
       orientation="1,0"
       id="guide1"
       inkscape:locked="false" />
    <sodipodi:guide
       position="350.48663,77.74364"
       orientation="0,-1"
       id="guide2"
       inkscape:locked="false" />
  </sodipodi:namedview>
  <g
     inkscape:groupmode="layer"
     inkscape:label="Image"
     id="g1">
    <path
       style="fill:#999999;stroke-width:0.143165"
       d="M 70.800659,152.67923 V 83.10072 h 69.578511 69.57851 v 69.57851 69.57851 H 140.37917 70.800659 Z M 193.31466,218.82201 H 206.5217 V 152.67923 86.536695 H 140.37917 74.236634 l -8.49e-4,40.659045 c -4.3e-4,22.36247 -8.61e-4,46.0707 -8.61e-4,52.68496 0,6.61425 4.31e-4,18.08149 8.61e-4,25.48276 l 8.49e-4,13.45684 13.493361,0.0366 c 7.421357,0.0202 31.242335,0.0205 52.935505,0.002 21.69317,-0.0195 45.3853,-0.0357 52.64916,-0.0358 z m -66.63187,-10.29359 c -1.28778,-0.3316 -2.34155,-1.36046 -2.94053,-2.87104 -0.2718,-0.68549 -0.31485,-1.0688 -0.31431,-2.7986 8.7e-4,-3.14524 0.4898,-4.66549 1.9834,-6.1687 0.70657,-0.71112 1.03732,-0.92747 1.79658,-1.17517 0.51182,-0.16697 1.33323,-0.3468 1.82536,-0.39961 l 0.89478,-0.096 v 0.78602 0.786 l -0.83216,0.0754 c -1.33852,0.12138 -2.50919,0.84235 -3.24011,1.99547 -0.23411,0.36933 -0.68909,1.84514 -0.59719,1.93704 0.0245,0.0245 0.21871,-0.0926 0.43169,-0.26014 0.90572,-0.71245 2.45431,-0.88276 3.7202,-0.40912 0.97315,0.3641 1.66342,1.10114 2.08853,2.23001 0.4535,1.2043 0.37093,3.23265 -0.17467,4.29079 -0.42719,0.82851 -1.16043,1.53087 -1.93848,1.8568 -0.63543,0.26619 -2.07128,0.38349 -2.70309,0.22081 z m 2.2453,-1.76837 c 0.67359,-0.45775 1.05535,-1.28361 1.12001,-2.42281 0.0686,-1.20823 -0.40715,-2.38235 -1.14833,-2.83423 -0.98898,-0.60297 -2.56491,-0.24351 -3.32995,0.75951 -0.29944,0.39258 -0.36621,0.63783 -0.36621,1.34496 0,1.27808 0.35665,2.22576 1.09313,2.9046 0.56112,0.51725 0.68979,0.5701 1.3879,0.5701 0.56205,0 0.89721,-0.0868 1.24345,-0.32213 z m 23.04749,1.70881 c -1.4179,-0.40916 -2.02855,-0.88456 -2.60875,-2.03092 -0.63252,-1.24974 -0.37025,-2.93466 0.62485,-4.01421 0.31826,-0.34527 0.70383,-0.6675 0.85681,-0.71605 0.25731,-0.0818 0.24828,-0.11131 -0.12059,-0.39581 -0.92305,-0.71191 -1.36509,-1.60309 -1.36509,-2.75211 0,-1.63303 0.85105,-2.82747 2.4059,-3.3767 1.64781,-0.58205 3.8205,-0.072 4.72069,1.10821 1.16748,1.53063 0.90042,3.92904 -0.548,4.92151 l -0.4883,0.33459 0.58605,0.447 c 1.1066,0.84403 1.6199,1.99689 1.46673,3.29422 -0.16809,1.4238 -1.19865,2.70048 -2.49164,3.08675 -0.84405,0.25215 -2.33042,0.29791 -3.03866,0.0935 z m 2.64808,-1.66222 c 0.23596,-0.13255 0.57977,-0.46302 0.76401,-0.73436 0.28532,-0.4202 0.32738,-0.63274 0.28362,-1.43352 -0.0603,-1.10399 -0.43535,-1.69705 -1.30058,-2.05669 -1.76881,-0.73524 -3.54077,0.33124 -3.54023,2.13074 2.9e-4,0.8359 0.33247,1.58135 0.88529,1.98651 0.72472,0.53114 2.06548,0.58061 2.90789,0.10734 z m -0.31223,-6.1894 c 1.03735,-0.54947 1.41318,-1.95619 0.82743,-3.09708 -0.75518,-1.4709 -3.07986,-1.42396 -3.79544,0.0767 -0.28076,0.58876 -0.29238,1.49947 -0.0257,2.01207 0.22175,0.42619 0.75348,0.95085 1.08736,1.0729 0.39344,0.14383 1.58942,0.10338 1.90634,-0.0645 z m -41.48545,7.75343 c -0.0208,-0.0393 -0.0448,-0.31351 -0.0534,-0.6092 -0.014,-0.48156 0.10893,-0.67554 1.17958,-1.86114 3.71636,-4.11537 4.41685,-4.95528 4.83314,-5.79505 0.37114,-0.74869 0.43106,-1.00966 0.37229,-1.62127 -0.12314,-1.28149 -1.02286,-2.06596 -2.34754,-2.04682 -1.26675,0.0182 -2.20654,0.81902 -2.41593,2.05837 l -0.0961,0.56934 h -0.84642 -0.84641 l 0.002,-0.53687 c 8.7e-4,-0.51329 0.49058,-1.72271 0.88555,-2.18911 0.78951,-0.93228 2.34761,-1.4992 3.8291,-1.3932 2.22645,0.1593 3.60335,1.47548 3.6143,3.45489 0.0102,1.90627 -0.89673,3.27938 -5.0032,7.57203 l -0.92445,0.96637 h 3.30834 3.30837 v 0.71178 0.71177 l -4.38034,0.0399 c -2.40918,0.022 -4.39734,0.008 -4.41816,-0.0318 z m 21.39706,-0.14316 c -0.34251,-0.34253 -0.37057,-0.96134 -0.0634,-1.39981 0.29121,-0.41575 1.33102,-0.45048 1.68768,-0.0564 0.35453,0.39175 0.30884,1.24642 -0.0813,1.51964 -0.44692,0.31303 -1.19734,0.28217 -1.54297,-0.0634 z m 6.15613,-0.47995 v -0.76877 l 0.83944,-0.0762 c 1.49831,-0.13587 2.75457,-0.88326 3.30783,-1.96797 0.20441,-0.40074 0.57719,-1.75076 0.57719,-2.09024 0,-0.0395 -0.20937,0.0849 -0.46528,0.27648 -0.90583,0.67808 -1.4271,0.86443 -2.39803,0.8573 -2.33061,-0.0171 -3.7223,-1.66953 -3.7223,-4.41963 0,-2.80226 1.61097,-4.64551 4.06008,-4.64551 2.32572,0 3.89132,1.63842 4.20514,4.4008 0.14756,1.29879 -0.0113,4.08838 -0.28358,4.98706 -0.4892,1.61327 -1.37807,2.82392 -2.49889,3.40352 -0.57923,0.29952 -1.84231,0.62747 -2.7984,0.72655 l -0.8232,0.0854 z m 3.27627,-5.52458 c 0.2996,-0.15284 0.75641,-0.51899 1.01512,-0.81365 0.46282,-0.52712 0.46918,-0.5532 0.39482,-1.61905 -0.0968,-1.3882 -0.42215,-2.18182 -1.14968,-2.80455 -0.49844,-0.42665 -0.68535,-0.49774 -1.30745,-0.49728 -1.3721,8.8e-4 -2.20752,0.89499 -2.33637,2.50012 -0.0401,0.49936 -0.0308,1.13216 0.0206,1.40622 0.11542,0.6152 0.79939,1.65756 1.25256,1.90884 0.49561,0.27484 1.48793,0.23691 2.11041,-0.0806 z m 19.77332,0.67159 c 3e-5,-3.10211 -0.0555,-5.54766 -0.12601,-5.54766 -0.10576,0 -2.22191,0.74472 -3.05935,1.07665 -0.22073,0.0875 -0.25054,0.003 -0.25054,-0.70851 v -0.8078 l 0.60846,-0.25904 c 1.29545,-0.55149 4.27763,-1.60966 4.41105,-1.56519 0.089,0.0297 0.14036,2.47453 0.14036,6.6828 v 6.63601 l -0.86203,0.0202 -0.86203,0.0202 z m -45.04789,-16.85461 c -1.34744,-0.28712 -2.4658,-1.15585 -3.07121,-2.38566 -0.33916,-0.68899 -0.3428,-0.74445 -0.38635,-5.88529 l -0.0439,-5.18975 h 0.93874 0.93874 l 0.003,4.975 c 0.003,5.69 0.028,5.82946 1.14762,6.57042 0.69931,0.46278 1.97912,0.61249 2.96544,0.3469 0.78834,-0.21228 1.53291,-0.98207 1.7381,-1.79698 0.10021,-0.39794 0.15864,-2.37606 0.15864,-5.36953 v -4.73948 l 0.89479,0.0426 0.89479,0.0426 v 5.0108 c 0,3.64894 -0.0496,5.17404 -0.18238,5.61145 -0.27962,0.92097 -1.44663,2.1099 -2.43794,2.48377 -0.91366,0.3446 -2.62913,0.48109 -3.55818,0.28311 z m 46.53453,-0.0526 c -1.82143,-0.46539 -2.86038,-1.55032 -3.20289,-3.34458 -0.10123,-0.53048 -0.14297,-2.4798 -0.11577,-5.41055 l 0.0426,-4.58129 0.88801,-0.0425 0.88802,-0.0425 0.0426,5.13559 0.0426,5.13559 0.34501,0.50323 c 0.18975,0.27678 0.57158,0.65848 0.8485,0.84823 0.43656,0.29914 0.66807,0.345 1.74136,0.345 1.10065,0 1.30165,-0.0422 1.81348,-0.38093 1.10023,-0.72809 1.11606,-0.81715 1.16248,-6.53351 l 0.0411,-5.05328 0.88953,0.0425 0.88955,0.0425 v 5.15395 c 0,5.07345 -0.006,5.1643 -0.32591,5.81546 -0.46318,0.94007 -1.35096,1.76104 -2.29504,2.12232 -1.00531,0.38472 -2.70616,0.49736 -3.69502,0.24469 z m -72.639894,-0.0842 c 0,-0.0736 0.829783,-2.31235 1.843954,-4.975 1.01416,-2.66265 2.136377,-5.61428 2.493797,-6.55918 l 0.649856,-1.71798 h 0.818561 0.818538 l 0.547776,1.43166 c 0.301279,0.78741 1.442622,3.7658 2.536332,6.61865 1.09371,2.85285 1.95511,5.22044 1.91423,5.26133 -0.0409,0.0409 -0.46626,0.0741 -0.94527,0.0737 l -0.87092,-5.7e-4 -0.62069,-1.78054 -0.62069,-1.78053 -2.743125,0.0274 -2.743125,0.0274 -0.629542,1.75378 -0.629541,1.75378 h -0.910065 c -0.500535,-3e-5 -0.910076,-0.0602 -0.910076,-0.13385 z m 7.503734,-6.27283 c -1.228091,-3.4204 -1.703953,-4.62165 -1.761588,-4.44692 -0.03397,0.10327 -0.502437,1.39831 -1.040872,2.8779 -0.538422,1.47961 -0.978966,2.752 -0.978966,2.82753 0,0.0815 0.869685,0.13734 2.141303,0.13734 h 2.141303 z m 5.89758,6.1802 c -0.11349,-0.29577 -0.11349,-12.7089 0,-13.00465 0.0656,-0.17106 0.29332,-0.22647 0.93057,-0.22647 h 0.84368 v 5.94138 5.94137 h 3.14964 3.14966 v 0.78741 0.78741 h -3.99334 c -3.50931,0 -4.00384,-0.0274 -4.08021,-0.22645 z m 21.59668,0.0474 c -0.0378,-0.0984 -0.0519,-3.11027 -0.0314,-6.693 l 0.0374,-6.51403 1.15487,-0.0411 1.15488,-0.0411 2.15108,5.38954 2.15109,5.38953 2.1451,-5.34838 2.14508,-5.34838 1.17037,-0.0416 1.17035,-0.0416 v 6.74142 6.7414 l -0.89479,-0.0426 -0.89478,-0.0426 0.0352,-5.15397 0.0352,-5.15396 -1.2594,3.07806 c -0.69267,1.69294 -1.64269,4.03101 -2.11117,5.19572 l -0.85178,2.11766 -0.70462,-0.0418 -0.70461,-0.0418 -0.75473,-1.86115 c -0.41511,-1.02364 -1.3543,-3.347 -2.08713,-5.16303 l -1.33237,-3.30187 0.0505,5.19882 0.0505,5.19882 h -0.87813 c -0.57048,0 -0.90219,-0.0627 -0.94677,-0.17896 z m 16.39848,-6.54984 v -6.74244 l 0.89478,0.0426 0.89479,0.0426 v 6.6572 6.65721 l -0.89479,0.0426 -0.89478,0.0426 z m 4.94953,6.60232 c -0.043,-0.0695 -0.063,-3.0814 -0.0442,-6.69299 l 0.034,-6.56653 0.88862,-0.0425 0.88862,-0.0425 1.5452,2.37149 c 0.84986,1.30431 2.33354,3.57747 3.29708,5.05147 l 1.75188,2.67999 0.0377,-5.00901 0.0377,-5.00902 0.89479,-0.0426 0.89479,-0.0426 v 6.73562 6.73561 l -0.89479,-0.002 -0.89479,-0.002 -0.81149,-1.25046 c -2.51161,-3.87019 -5.421,-8.3034 -5.61241,-8.5519 -0.1999,-0.25951 -0.22115,0.18618 -0.22692,4.76026 l -0.006,5.04659 h -0.85055 c -0.4678,0 -0.88571,-0.057 -0.92872,-0.12647 z m 25.40499,0.0259 c 0.002,-0.0628 -0.0135,-3.07774 -0.0342,-6.69983 l -0.0377,-6.58562 1.15867,-0.0412 1.15867,-0.0412 2.14747,5.36963 c 2.02646,5.06706 2.15747,5.3477 2.32506,4.98046 0.0977,-0.21404 0.65348,-1.58103 1.23511,-3.03773 0.58163,-1.45671 1.47021,-3.67936 1.9746,-4.93922 l 0.91709,-2.29065 1.16153,-0.0416 1.16152,-0.0416 v 6.74141 6.74141 l -0.89479,-0.0426 -0.89478,-0.0426 0.03,-5.08238 c 0.0268,-4.52805 0.008,-5.03554 -0.17752,-4.65289 -0.11418,0.23623 -0.79182,1.87906 -1.50587,3.65073 -0.71406,1.77167 -1.56832,3.88346 -1.89838,4.69286 l -0.60009,1.47164 -0.69046,-0.04 -0.69048,-0.04 -1.92457,-4.72447 c -1.0585,-2.59845 -1.96289,-4.87003 -2.00975,-5.04794 -0.0468,-0.17791 -0.15238,-0.36501 -0.23452,-0.41577 -0.10123,-0.0625 -0.12007,0.20329 -0.0585,0.82455 0.0499,0.50427 0.0978,2.81738 0.10655,5.14024 l 0.0159,4.22339 -0.87197,0.0426 c -0.47957,0.0234 -0.87042,-0.009 -0.86855,-0.0716 z M 106.6649,158.5848 c 0.057,-0.13779 0.41125,-1.08805 0.78745,-2.11169 0.3762,-1.02362 1.07206,-2.89195 1.54636,-4.1518 0.4743,-1.25985 1.37719,-3.67578 2.00641,-5.36871 1.42219,-3.82636 4.00463,-10.75341 5.17718,-13.88706 0.48616,-1.29924 1.46635,-3.94065 2.17823,-5.8698 0.71186,-1.92916 1.45318,-3.92632 1.64735,-4.43813 0.19417,-0.51182 0.79149,-2.12244 1.32737,-3.57915 0.53589,-1.4567 1.95413,-5.25775 3.15165,-8.44677 1.19752,-3.18901 2.21073,-5.91173 2.25158,-6.0505 0.0694,-0.23586 0.41414,-0.24984 5.29736,-0.21475 l 5.22309,0.0375 2.99863,8.01728 c 1.64926,4.40951 6.19367,16.55353 10.09871,26.98673 3.90505,10.43319 7.13009,19.04998 7.16674,19.1484 0.0527,0.14139 -1.19178,0.17896 -5.92619,0.17896 h -5.99287 l -1.87591,-5.54767 -1.87594,-5.54767 h -9.78416 -9.78416 l -1.85328,5.54767 -1.85329,5.54767 h -6.00788 c -5.66577,0 -6.002,-0.0143 -5.90443,-0.25054 z m 28.76468,-30.05524 c -1.84734,-5.48694 -3.37614,-9.9936 -3.39732,-10.01479 -0.0351,-0.0351 -5.62724,16.69931 -6.35079,19.00474 l -0.30954,0.98632 h 6.70824 6.70821 z m 26.13811,6.75708 v -23.55279 h 4.43814 4.43812 l 0.002,4.76026 c 8.8e-4,2.61814 8.8e-4,13.19987 4.3e-4,23.51495 l -0.002,18.75471 -4.43852,0.0378 -4.43855,0.0378 z M 93.34926,105.52056 c -1.74116,-0.42803 -2.734757,-1.4244 -2.976804,-2.9851 l -0.08334,-0.53687 h 1.136327 c 0.986565,0 1.136394,0.0331 1.136859,0.25054 8.72e-4,0.43918 0.521721,1.12457 1.042151,1.37153 0.616383,0.29249 1.382846,0.3062 2.02884,0.0362 1.302734,-0.54433 1.452484,-2.63222 0.247516,-3.45102 -0.44504,-0.302395 -0.686532,-0.354834 -1.63428,-0.354834 h -1.112095 v -0.930571 -0.930582 h 0.935168 c 1.690455,0 2.423401,-0.59162 2.406858,-1.942784 -0.01608,-1.316061 -0.695545,-1.86823 -2.15043,-1.747581 -0.679443,0.05639 -0.866391,0.134827 -1.150447,0.482962 -0.186529,0.228617 -0.376794,0.592842 -0.422801,0.809378 -0.08266,0.389317 -0.09625,0.393711 -1.217549,0.393711 h -1.133926 l 0.09738,-0.536872 c 0.219616,-1.210211 0.925918,-2.084019 2.134623,-2.640898 0.580783,-0.267581 0.958891,-0.329406 2.004314,-0.327742 1.522474,0.0023 2.315354,0.266698 3.11111,1.036931 1.402741,1.357777 1.220515,4.140941 -0.328863,5.02238 -0.23001,0.130864 -0.418429,0.27014 -0.418724,0.309511 -2.83e-4,0.03941 0.238741,0.200434 0.531165,0.357907 0.30634,0.164981 0.709506,0.574861 0.951247,0.967104 0.355586,0.57696 0.419562,0.8285 0.419562,1.64974 0,2.01894 -1.080174,3.29492 -3.163004,3.7364 -0.930741,0.19727 -1.463581,0.18846 -2.390982,-0.0395 z m -9.371998,-4.63151 c 2.83e-4,-2.500022 -8.72e-4,-4.791439 -0.0023,-5.092027 -0.0034,-0.622192 0.07281,-0.620924 -1.577721,-0.02616 -1.734921,0.625193 -1.594648,0.664814 -1.545833,-0.436581 l 0.04269,-0.961268 2.433807,-0.904075 c 1.338595,-0.49724 2.546553,-0.907506 2.684357,-0.911695 0.235015,-0.0068 0.25054,0.391718 0.25054,6.434837 v 6.442459 H 85.11993 83.97707 Z"
       id="path1" />
  </g>
</svg>
