<?xml version="1.0" encoding="UTF-8" standalone="no"?>
<!-- Created with Inkscape (http://www.inkscape.org/) -->

<svg
   version="1.1"
   id="svg1"
   width="320"
   height="320"
   viewBox="0 0 320 320"
   sodipodi:docname="aluminium.svg"
   inkscape:version="1.4 (86a8ad7, 2024-10-11)"
   inkscape:export-filename="aluminium.png"
   inkscape:export-xdpi="96"
   inkscape:export-ydpi="96"
   xmlns:inkscape="http://www.inkscape.org/namespaces/inkscape"
   xmlns:sodipodi="http://sodipodi.sourceforge.net/DTD/sodipodi-0.dtd"
   xmlns:xlink="http://www.w3.org/1999/xlink"
   xmlns="http://www.w3.org/2000/svg"
   xmlns:svg="http://www.w3.org/2000/svg">
  <defs
     id="defs1">
    <linearGradient
       id="linearGradient1"
       inkscape:collect="always">
      <stop
         style="stop-color:#999999;stop-opacity:1;"
         offset="0"
         id="stop1" />
      <stop
         style="stop-color:#999999;stop-opacity:0;"
         offset="1"
         id="stop2" />
    </linearGradient>
    <linearGradient
       inkscape:collect="always"
       xlink:href="#linearGradient1"
       id="linearGradient2"
       x1="156.45723"
       y1="37.011387"
       x2="157.5788"
       y2="319.08304"
       gradientUnits="userSpaceOnUse" />
  </defs>
  <sodipodi:namedview
     id="namedview1"
     pagecolor="#ffffff"
     bordercolor="#000000"
     borderopacity="0.25"
     inkscape:showpageshadow="2"
     inkscape:pageopacity="0.0"
     inkscape:pagecheckerboard="0"
     inkscape:deskcolor="#d1d1d1"
     showguides="true"
     inkscape:zoom="1.7832349"
     inkscape:cx="123.65168"
     inkscape:cy="185.89811"
     inkscape:window-width="1920"
     inkscape:window-height="1009"
     inkscape:window-x="-8"
     inkscape:window-y="-8"
     inkscape:window-maximized="1"
     inkscape:current-layer="g1">
    <sodipodi:guide
       position="49.348518,103.53946"
       orientation="1,0"
       id="guide1"
       inkscape:locked="false" />
    <sodipodi:guide
       position="350.48663,77.74364"
       orientation="0,-1"
       id="guide2"
       inkscape:locked="false" />
  </sodipodi:namedview>
  <g
     inkscape:groupmode="layer"
     inkscape:label="Image"
     id="g1">
    <path
       style="fill:url(#linearGradient2);stroke-width:0.159409;fill-opacity:1"
       d="M 79.574336,164.1457 V 86.672935 h 77.472774 77.47275 V 164.1457 241.61847 H 157.04711 79.574336 Z m 136.414234,73.64724 h 14.70547 V 164.1457 90.498758 H 157.04711 83.400143 l -9.44e-4,45.272152 c -4.83e-4,24.89968 -9.67e-4,51.29781 -9.67e-4,58.6625 0,7.36469 4.84e-4,20.13298 9.67e-4,28.37398 l 9.44e-4,14.98363 15.024303,0.0407 c 8.263364,0.0224 34.787024,0.0229 58.941464,0.001 24.15446,-0.0217 50.53465,-0.0397 58.62266,-0.0399 z m -74.19181,-11.46149 c -1.4339,-0.36923 -2.60722,-1.51481 -3.27416,-3.19678 -0.30264,-0.76326 -0.35057,-1.19006 -0.34997,-3.11611 0.001,-3.5021 0.54536,-5.19484 2.20843,-6.8686 0.78674,-0.79181 1.15502,-1.0327 2.00042,-1.3085 0.56989,-0.18592 1.48448,-0.38615 2.03246,-0.44496 l 0.9963,-0.10696 v 0.87521 0.87519 l -0.92657,0.084 c -1.4904,0.13514 -2.79389,0.9379 -3.60774,2.22186 -0.26067,0.41125 -0.76727,2.05448 -0.66493,2.15681 0.0272,0.0272 0.24351,-0.10306 0.48065,-0.28964 1.00851,-0.79329 2.73278,-0.98293 4.14229,-0.45554 1.08357,0.4054 1.85216,1.22606 2.32549,2.483 0.50496,1.34094 0.41302,3.59942 -0.19448,4.77763 -0.47566,0.92251 -1.2921,1.70457 -2.15841,2.06747 -0.70752,0.29638 -2.30629,0.427 -3.00978,0.24585 z m 2.50003,-1.969 c 0.75002,-0.5097 1.17511,-1.42926 1.24709,-2.6977 0.0764,-1.34532 -0.45333,-2.65265 -1.27861,-3.1558 -1.10117,-0.67138 -2.85592,-0.27114 -3.70776,0.84569 -0.3334,0.43711 -0.40775,0.71019 -0.40775,1.49756 0,1.42307 0.3971,2.47827 1.21714,3.23415 0.62479,0.57592 0.76806,0.63477 1.54538,0.63477 0.6258,0 0.99899,-0.0967 1.38451,-0.35867 z m 25.66245,1.90268 c -1.57879,-0.45559 -2.25872,-0.98492 -2.90475,-2.26135 -0.70428,-1.39154 -0.41225,-3.26762 0.69573,-4.46964 0.35438,-0.38445 0.78369,-0.74323 0.95403,-0.7973 0.2865,-0.0909 0.27647,-0.12393 -0.13426,-0.44071 -1.02779,-0.79269 -1.51997,-1.78498 -1.51997,-3.06438 0,-1.81829 0.9476,-3.14825 2.67886,-3.7598 1.83478,-0.6481 4.25396,-0.0802 5.2563,1.23393 1.29993,1.70431 1.00257,4.37484 -0.61018,5.47992 l -0.54371,0.37255 0.65254,0.4977 c 1.23216,0.93979 1.8037,2.22346 1.63315,3.66799 -0.18717,1.58534 -1.33464,3.00687 -2.77433,3.43697 -0.93983,0.28076 -2.59483,0.3317 -3.38341,0.10413 z m 2.94851,-1.85082 c 0.26274,-0.1476 0.64553,-0.51555 0.8507,-0.81768 0.31769,-0.46786 0.36451,-0.70453 0.31579,-1.59615 -0.0672,-1.22925 -0.48475,-1.8896 -1.44813,-2.29004 -1.96952,-0.81866 -3.94252,0.36883 -3.94191,2.37248 3.2e-4,0.93075 0.3702,1.76077 0.98574,2.2119 0.80693,0.59139 2.29982,0.64649 3.23781,0.11949 z m -0.34764,-6.89162 c 1.15504,-0.61181 1.5735,-2.17813 0.92129,-3.44847 -0.84086,-1.63779 -3.4293,-1.58553 -4.22607,0.0853 -0.31261,0.65556 -0.32555,1.6696 -0.0285,2.24037 0.2469,0.47453 0.83896,1.05872 1.21072,1.19462 0.43808,0.16014 1.76975,0.1151 2.12264,-0.0719 z m -46.19234,8.63311 c -0.0231,-0.0439 -0.05,-0.34907 -0.0595,-0.6783 -0.0156,-0.53623 0.12129,-0.75221 1.3134,-2.07233 4.138,-4.58227 4.91797,-5.51747 5.38149,-6.45252 0.41325,-0.83365 0.47997,-1.12423 0.41455,-1.80523 -0.13712,-1.42688 -1.13893,-2.30037 -2.6139,-2.27903 -1.41047,0.0204 -2.4569,0.91193 -2.69004,2.2919 l -0.10707,0.63392 h -0.94244 -0.94245 l 0.001,-0.59779 c 0.001,-0.5715 0.54624,-1.91815 0.98602,-2.43747 0.87908,-1.03805 2.61397,-1.66929 4.26354,-1.55126 2.47906,0.17737 4.0122,1.64288 4.02438,3.84687 0.0118,2.12255 -0.99848,3.65145 -5.57086,8.43113 l -1.02933,1.07601 h 3.68369 3.68373 v 0.79253 0.79253 l -4.87731,0.0445 c -2.68253,0.0244 -4.89628,0.008 -4.91945,-0.0354 z m 23.82475,-0.15941 c -0.38138,-0.38139 -0.41263,-1.0704 -0.0706,-1.55863 0.32424,-0.46291 1.48204,-0.50158 1.87917,-0.0627 0.39475,0.43619 0.34387,1.38784 -0.0905,1.69205 -0.49761,0.34854 -1.33318,0.31419 -1.71802,-0.0706 z m 6.85459,-0.53441 v -0.85599 l 0.93467,-0.0848 c 1.66831,-0.15128 3.06711,-0.98348 3.68314,-2.19126 0.22759,-0.44619 0.64268,-1.9494 0.64268,-2.32737 0,-0.044 -0.23314,0.0946 -0.51807,0.30784 -1.00863,0.75501 -1.58902,0.9625 -2.67011,0.95456 -2.59505,-0.0191 -4.14463,-1.85894 -4.14463,-4.92107 0,-3.12019 1.79375,-5.17259 4.52074,-5.17259 2.58959,0 4.33281,1.82433 4.68225,4.90011 0.16429,1.44616 -0.0124,4.55225 -0.31576,5.55289 -0.54471,1.79629 -1.53442,3.14431 -2.78242,3.78968 -0.64495,0.33349 -2.05134,0.69866 -3.11589,0.80898 l -0.9166,0.095 z m 3.64799,-6.15138 c 0.33359,-0.17019 0.84222,-0.57787 1.13029,-0.90596 0.51532,-0.58692 0.52241,-0.61596 0.43963,-1.80275 -0.10779,-1.54569 -0.47008,-2.42935 -1.28015,-3.12274 -0.555,-0.47506 -0.7631,-0.55422 -1.45577,-0.55371 -1.52778,0.001 -2.45799,0.99654 -2.60146,2.78378 -0.0446,0.55602 -0.0343,1.26062 0.0229,1.56577 0.12851,0.685 0.89009,1.84562 1.39467,2.12543 0.55184,0.30601 1.65674,0.26378 2.34985,-0.0898 z m 22.01676,0.7478 c 4e-5,-3.45408 -0.0619,-6.17709 -0.14031,-6.17709 -0.11781,0 -2.47399,0.8292 -3.40645,1.1988 -0.24578,0.0974 -0.27897,0.004 -0.27897,-0.78889 v -0.89947 l 0.67748,-0.28842 c 1.44244,-0.61405 4.76297,-1.79229 4.91154,-1.74277 0.0992,0.033 0.15628,2.75529 0.15628,7.44101 v 7.38893 l -0.95984,0.0224 -0.95984,0.0225 z m -50.15895,-18.7669 c -1.50031,-0.31971 -2.74555,-1.287 -3.41965,-2.65635 -0.37766,-0.76715 -0.38171,-0.8289 -0.43019,-6.55303 l -0.0489,-5.77857 h 1.04525 1.04525 l 0.004,5.53946 c 0.005,6.33558 0.0311,6.49087 1.27784,7.31591 0.77862,0.51526 2.20364,0.68198 3.30187,0.38625 0.87778,-0.23635 1.70683,-1.09351 1.93531,-2.00087 0.11156,-0.4431 0.17664,-2.64565 0.17664,-5.97875 v -5.27721 l 0.99632,0.0474 0.99629,0.0474 v 5.57931 c 0,4.06296 -0.0552,5.76108 -0.20307,6.24813 -0.31134,1.02545 -1.61075,2.34927 -2.71455,2.76557 -1.0173,0.38369 -2.92741,0.53566 -3.96188,0.31523 z m 51.81426,-0.0587 c -2.02808,-0.51819 -3.18492,-1.72622 -3.56628,-3.72405 -0.11274,-0.59068 -0.15919,-2.76116 -0.1289,-6.02442 l 0.0473,-5.10109 0.98877,-0.0473 0.98877,-0.0472 0.0474,5.71827 0.0474,5.71827 0.38416,0.56032 c 0.21127,0.30816 0.63642,0.73318 0.94477,0.94447 0.48609,0.33308 0.74386,0.38414 1.93891,0.38414 1.22554,0 1.44934,-0.047 2.01924,-0.42416 1.22506,-0.81069 1.24269,-0.90986 1.29437,-7.27478 l 0.0458,-5.62662 0.99047,0.0473 0.99046,0.0473 v 5.73872 c 0,5.64907 -0.006,5.75023 -0.36289,6.47526 -0.51572,1.04673 -1.50423,1.96084 -2.55543,2.36312 -1.11937,0.42837 -3.01321,0.55378 -4.11424,0.27245 z m -80.88148,-0.0939 c 0,-0.082 0.92391,-2.5747 2.05315,-5.53945 1.12924,-2.96476 2.37878,-6.25129 2.77675,-7.30338 l 0.72358,-1.91291 h 0.91142 0.91141 l 0.60994,1.59409 c 0.33546,0.87675 1.60631,4.19307 2.8241,7.3696 1.2178,3.17652 2.17694,5.81275 2.13141,5.85828 -0.0455,0.0455 -0.51915,0.0824 -1.05251,0.0821 l -0.96974,-6.2e-4 -0.69112,-1.98256 -0.69111,-1.98255 -3.05435,0.0304 -3.05436,0.0304 -0.70096,1.95276 -0.70097,1.95276 h -1.01332 c -0.55733,-4e-5 -1.01332,-0.0671 -1.01332,-0.14903 z m 8.35508,-6.98455 c -1.36743,-3.80846 -1.89728,-5.14601 -1.96144,-4.95146 -0.038,0.11498 -0.55946,1.55697 -1.15898,3.20444 -0.59952,1.64746 -1.09003,3.06422 -1.09003,3.14833 0,0.0908 0.96836,0.15293 2.38425,0.15293 h 2.38426 z m 6.5667,6.8814 c -0.12637,-0.32932 -0.12637,-14.15082 0,-14.48014 0.0731,-0.19045 0.32661,-0.25215 1.03617,-0.25215 h 0.93939 v 6.61547 6.61548 h 3.50701 3.50699 v 0.87674 0.87675 h -4.4464 c -3.90747,0 -4.45812,-0.0305 -4.54316,-0.25215 z m 24.04701,0.0529 c -0.042,-0.10955 -0.0577,-3.46316 -0.0348,-7.45238 l 0.0415,-7.2531 1.28591,-0.0457 1.2859,-0.0458 2.39514,6.00103 2.39515,6.00102 2.38847,-5.9552 2.38847,-5.95518 1.30315,-0.0463 1.30313,-0.0462 v 7.50627 7.50627 l -0.9963,-0.0474 -0.99631,-0.0474 0.0393,-5.73872 0.0393,-5.73872 -1.40228,3.42729 c -0.77126,1.88501 -1.82909,4.48836 -2.35071,5.78522 l -0.94843,2.35792 -0.78456,-0.0465 -0.78456,-0.0465 -0.84036,-2.0723 c -0.4622,-1.13978 -1.50795,-3.72675 -2.32391,-5.74883 l -1.48356,-3.67649 0.0561,5.78867 0.0561,5.78866 h -0.97778 c -0.63518,0 -1.00454,-0.0698 -1.05417,-0.19926 z m 18.25903,-7.29297 v -7.50742 l 0.99631,0.0474 0.99631,0.0474 v 7.41251 7.41252 l -0.99631,0.0474 -0.99631,0.0474 z m 5.5111,7.3514 c -0.0479,-0.0775 -0.0701,-3.431 -0.0493,-7.45237 l 0.0377,-7.31154 0.98943,-0.0473 0.98946,-0.0473 1.7205,2.64055 c 0.94628,1.4523 2.59831,3.98338 3.67118,5.6246 l 1.95063,2.98406 0.042,-5.57732 0.042,-5.57733 0.9963,-0.0474 0.99631,-0.0474 v 7.49982 7.49983 l -0.99631,-0.002 -0.9963,-0.002 -0.90357,-1.39234 c -2.79655,-4.3093 -6.03606,-9.24547 -6.24919,-9.52218 -0.22257,-0.28896 -0.24622,0.20731 -0.25266,5.30036 l -0.007,5.61916 h -0.94703 c -0.52088,0 -0.98623,-0.0633 -1.03409,-0.14082 z m 28.28739,0.0289 c 0.002,-0.0699 -0.0151,-3.42693 -0.0381,-7.45998 l -0.0419,-7.3328 1.29013,-0.0459 1.29014,-0.0459 2.39111,5.97887 c 2.25639,5.64196 2.40226,5.95443 2.58886,5.54552 0.10873,-0.23832 0.72763,-1.76039 1.37525,-3.38238 0.64762,-1.62199 1.63701,-4.0968 2.19863,-5.49961 l 1.02115,-2.55054 1.29331,-0.0463 1.29331,-0.0462 v 7.50627 7.50627 l -0.9963,-0.0474 -0.99632,-0.0474 0.0335,-5.65901 c 0.0297,-5.04179 0.008,-5.60687 -0.19767,-5.18081 -0.12712,0.26303 -0.88165,2.09226 -1.67672,4.06494 -0.79506,1.97269 -1.74626,4.32407 -2.11377,5.22529 l -0.66817,1.63861 -0.76882,-0.0444 -0.7688,-0.0445 -2.14292,-5.2605 c -1.1786,-2.89327 -2.18561,-5.42258 -2.23777,-5.62067 -0.0521,-0.1981 -0.16967,-0.40643 -0.26113,-0.46295 -0.11273,-0.0696 -0.1337,0.22636 -0.0652,0.91812 0.0557,0.56148 0.10897,3.13702 0.11868,5.72344 l 0.0176,4.70256 -0.97089,0.0474 c -0.53399,0.0261 -0.96917,-0.009 -0.96708,-0.0797 z M 119.50767,170.7212 c 0.0633,-0.15343 0.45792,-1.2115 0.8768,-2.35128 0.41887,-1.13978 1.19369,-3.22007 1.7218,-4.62286 0.52811,-1.40279 1.53343,-4.09283 2.23405,-5.97784 1.58355,-4.26049 4.459,-11.97347 5.76459,-15.46266 0.54131,-1.44664 1.63271,-4.38774 2.42536,-6.53577 0.79264,-2.14804 1.61805,-4.3718 1.83426,-4.94169 0.21619,-0.56988 0.88129,-2.36324 1.47798,-3.98522 0.59668,-1.62198 2.17583,-5.8543 3.50921,-9.40513 1.3334,-3.55082 2.46155,-6.58246 2.50704,-6.73697 0.0774,-0.26263 0.46114,-0.2782 5.89839,-0.2391 l 5.81569,0.0417 3.33886,8.92692 c 1.83637,4.90979 6.89639,18.43166 11.24449,30.04859 4.34811,11.61692 7.93906,21.21136 7.97987,21.32094 0.0587,0.15742 -1.32702,0.19926 -6.59857,0.19926 h -6.67281 l -2.08875,-6.17708 -2.08877,-6.17711 h -10.89427 -10.89425 l -2.06355,6.17711 -2.06355,6.17708 H 126.082 c -6.3086,0 -6.68296,-0.0158 -6.57433,-0.27896 z m 32.02827,-33.46526 c -2.05693,-6.10949 -3.75918,-11.12745 -3.78278,-11.15105 -0.039,-0.0391 -6.26569,18.59397 -7.07132,21.16099 l -0.34468,1.09821 h 7.46934 7.46933 z m 29.10368,7.52373 v -26.22506 h 4.94169 4.94168 l 0.002,5.30036 c 0.001,2.91519 0.001,14.6975 4.7e-4,26.18292 l -0.002,20.88257 -4.9421,0.0421 -4.94215,0.0421 z m -75.95837,-33.14328 c -1.93869,-0.47661 -3.04502,-1.58602 -3.31453,-3.32379 l -0.0927,-0.5978 h 1.26526 c 1.0985,0 1.26533,0.0368 1.26583,0.27898 0.001,0.48901 0.58093,1.25215 1.1604,1.52714 0.6863,0.32568 1.53975,0.34094 2.25903,0.0403 1.45053,-0.60606 1.61727,-2.93085 0.27559,-3.84255 -0.49552,-0.33671 -0.76441,-0.3951 -1.8197,-0.3951 h -1.23827 v -1.03616 -1.03615 h 1.04128 c 1.88224,0 2.69834,-0.65874 2.67994,-2.1632 -0.0179,-1.4654 -0.77448,-2.080204 -2.39443,-1.945875 -0.75653,0.06274 -0.96469,0.15013 -1.28097,0.537751 -0.2077,0.254566 -0.41955,0.660114 -0.47077,0.901224 -0.0921,0.43348 -0.10719,0.43837 -1.3557,0.43837 h -1.26257 l 0.10849,-0.59778 c 0.24453,-1.347514 1.03095,-2.320458 2.37681,-2.940521 0.64668,-0.297939 1.0677,-0.366784 2.23172,-0.364932 1.6952,0.0024 2.57805,0.29696 3.46409,1.154584 1.5619,1.511827 1.359,4.610749 -0.36616,5.592209 -0.25612,0.1457 -0.46593,0.30078 -0.46624,0.34462 -3.2e-4,0.0439 0.26583,0.22318 0.59143,0.39852 0.34109,0.1837 0.79,0.64008 1.05916,1.07683 0.39595,0.64242 0.46717,0.92251 0.46717,1.83692 0,2.24799 -1.20273,3.66874 -3.52187,4.16031 -1.03633,0.21967 -1.62964,0.20986 -2.66226,-0.044 z m -10.435314,-5.157 c 3.07e-4,-2.78369 -9.67e-4,-5.33507 -0.0024,-5.66976 -0.0035,-0.6928 0.08101,-0.69138 -1.756723,-0.0291 -1.931771,0.69613 -1.775591,0.74024 -1.721227,-0.48612 l 0.04741,-1.070312 2.709949,-1.006658 c 1.490472,-0.55366 2.835493,-1.010479 2.988926,-1.015137 0.261677,-0.0071 0.278964,0.436159 0.278964,7.164927 v 7.1734 h -1.272533 -1.272533 z"
       id="path1" />
  </g>
</svg>
