<?xml version="1.0" encoding="UTF-8" standalone="no"?>
<svg
   id="Calque_7"
   viewBox="0 0 889781.06 1532225.6"
   version="1.1"
   xmlns="http://www.w3.org/2000/svg">
  <defs
     id="defs52" />
  <g
     id="g53"
     fill="#000000"
     inkscape:export-filename="g53.svg"
     inkscape:export-xdpi="96"
     inkscape:export-ydpi="96"
     transform="translate(-364112.53,-42885.216)">
    <g
       id="g10"
       transform="matrix(3.5461045,0,0,3.5461045,-1619.3448,-1619.3346)">
      <path
         d="m 707.54,648.12 c 0,-8.81 2.75,-13.22 8.24,-13.22 h 9.8 c 2.76,0 4.72,1.26 5.88,3.78 1.02,2.18 1.52,5.33 1.52,9.44 0,3.7 -0.54,6.8 -1.63,9.3 -0.56,1.26 -1.33,2.25 -2.31,2.98 -0.98,0.73 -2.14,1.09 -3.47,1.09 h -9.8 c -1.28,0 -2.42,-0.31 -3.41,-0.94 -0.99,-0.63 -1.79,-1.42 -2.38,-2.36 -0.59,-0.94 -1.08,-2.03 -1.47,-3.27 -0.65,-2.08 -0.98,-4.35 -0.98,-6.79 z m 2.33,0 c 0,2.91 0.51,5.47 1.52,7.68 1.02,2.22 2.48,3.34 4.39,3.36 h 9.8 c 1.5,-0.02 2.72,-0.98 3.67,-2.87 0.94,-1.89 1.42,-4.61 1.42,-8.17 0,-3.87 -0.41,-6.66 -1.23,-8.35 -0.34,-0.7 -0.84,-1.3 -1.49,-1.8 -0.65,-0.5 -1.44,-0.74 -2.36,-0.74 h -9.8 c -1.84,0 -3.29,0.8 -4.34,2.4 -1.05,1.6 -1.58,4.43 -1.58,8.5 z m 5.15,7.81 v -15.51 h 6.43 c 3.24,0 4.87,1.55 4.87,4.65 0,2.01 -0.45,3.32 -1.34,3.92 -0.46,0.29 -0.8,0.48 -1.03,0.56 -0.23,0.08 -0.6,0.18 -1.11,0.27 l 3.3,6.1 h -2.61 l -3.3,-6.17 -2.87,-0.44 v 6.61 h -2.32 z m 2.33,-8.21 h 4.32 c 0.94,0 1.57,-0.17 1.87,-0.51 0.3,-0.34 0.45,-0.91 0.45,-1.71 0,-0.8 -0.07,-1.37 -0.22,-1.72 -0.14,-0.35 -0.35,-0.6 -0.62,-0.74 -0.41,-0.19 -0.91,-0.29 -1.49,-0.29 h -4.32 v 4.97 z"
         id="path1" />
      <g
         id="g9">
        <path
           d="m 635.85,660.15 c -53.44,0 -97.18,-43.79 -96.84,-97.63 0.33,-53.07 43.75,-96.57 97.43,-96.36 53.29,0.22 96.85,43.8 96.57,97.56 -0.28,53.16 -43.73,96.57 -97.15,96.43 z m -0.1,-181.6 c -46.54,0.42 -83.56,37.32 -84.33,83.1 -0.8,47.77 37.59,86.99 86.41,86.07 44.93,-0.85 83.24,-37.23 82.72,-85.77 -0.49,-45.76 -37.6,-83.23 -84.81,-83.41 z"
           id="path2" />
        <g
           id="g8">
          <g
             id="g5">
            <path
               d="m 659.98,490.26 c -3.1,1.33 -5.52,2.24 -7.84,3.37 -29,14.14 -44.92,37.16 -45.76,69.58 -0.61,23.58 23.72,38.38 44.81,27.88 11.85,-5.9 24.87,-1.93 31.4,9.57 6.16,10.87 2.7,24.06 -8.76,30.66 -22.02,12.68 -44.92,12.59 -67.82,2.77 -32.2,-13.8 -50.65,-46.88 -45.8,-81.09 4.83,-34.02 32.53,-61.39 66.81,-65.68 10.86,-1.36 21.7,-0.9 32.97,2.93 z"
               id="path3" />
            <path
               d="m 691.2,617.91 c -0.58,-5.08 -0.5,-9.93 -1.77,-14.4 -3.35,-11.84 -13.06,-19.25 -25.7,-20.42 -13.53,-1.24 -20.24,-13.46 -13.12,-24.7 1.85,-2.92 5.64,-5.95 8.88,-6.39 7.86,-1.06 16,-1.39 23.89,-0.61 13.24,1.31 19.78,7.74 22.15,20.85 3.21,17.74 -1.95,32.95 -14.33,45.67 z"
               id="path4" />
            <path
               d="m 615.98,539.58 c 3.5,-9.64 8.17,-17.09 14.18,-23.7 8.76,-9.64 19.51,-16.23 31.81,-20.45 2.94,-1.01 4.48,-0.28 5.97,2.19 4.67,7.74 5.28,15.66 0.95,23.63 -4.29,7.89 -10.98,12.24 -20.11,12.4 -1.83,0.03 -3.71,-0.1 -5.5,-0.45 -9.53,-1.9 -18.31,-0.36 -27.3,6.38 z"
               id="path5" />
          </g>
          <g
             id="g7">
            <path
               d="m 616,564.57 c -0.42,-10.27 7.12,-19.69 17.21,-21.38 1.79,-0.3 3.75,-0.55 5.45,-0.11 3.27,0.84 4.76,3.49 4.33,6.72 -0.35,2.61 -2.79,4.78 -5.92,4.99 -3.09,0.2 -5.59,1.37 -7.37,3.91 -1.98,2.82 -2.15,5.99 -0.83,9 1.45,3.33 4.3,5.04 7.98,5.2 3.63,0.16 6.22,2.72 6.18,6.15 -0.04,3.4 -2.95,6.12 -6.38,5.94 -7.98,-0.42 -14,-4.11 -18.08,-10.96 -1.45,-2.44 -2.44,-6.2 -2.57,-9.46 z"
               id="path6" />
            <path
               d="m 642.95,564.03 c -0.07,3 -2.98,5.66 -6.11,5.59 -2.95,-0.06 -5.56,-2.81 -5.49,-5.79 0.08,-3.15 2.74,-5.85 5.69,-5.77 3.24,0.09 5.99,2.86 5.91,5.96 z"
               id="path7" />
          </g>
        </g>
      </g>
    </g>
    <g
       id="g15"
       transform="matrix(3.5461045,0,0,3.5461045,-1619.3448,-1619.3346)">
      <path
         d="m 647.63,772.92 c -1.87,2.11 -4.54,7.04 -7.47,6.55 -2.44,-0.41 -3.22,-2.52 -2.96,-4.97 -1.18,1.62 -2.39,3.13 -3.92,4.45 -1.21,1.04 -3.08,1.04 -4.08,-0.33 -0.28,-0.39 -0.3,-1.22 -0.43,-1.81 l -2.69,3.27 c -0.99,1.2 -2.13,2.19 -3.41,3.04 -0.64,0.42 -1.44,0.37 -2.09,0.12 -1.23,-0.47 -1.93,-1.41 -1.89,-2.87 l -3.01,3.33 c -1.21,1.34 -2.67,2.49 -4.21,3.34 -1.43,0.79 -2.83,0.72 -4.16,-0.07 -3.5,-2.07 -2.42,-6.04 -0.88,-9.08 1.54,-3.04 3.83,-5.83 6.86,-7.57 2.45,-1.4 5,0.41 5.16,1.32 0.47,2.67 -2.37,5.86 -4.17,7.59 -1.51,1.45 -3.35,2.36 -5.43,2.73 -0.55,1.1 -0.72,2.46 -0.15,3.67 2.99,-0.46 9,-6.46 10.64,-8.74 1.64,-2.28 2.82,-4.97 5.21,-6.88 2.12,-1.7 4.77,-3.79 7.29,-1.07 0.26,-0.31 0.64,-0.68 0.94,-0.71 0.86,-0.09 1.97,0.68 1.91,1.53 -0.94,2.45 -2.42,4.65 -2.61,7.51 2.26,-2.19 4.95,-4.3 6.2,-7.07 l 4.03,-9 c -3.19,0.95 -6.1,2.05 -9.18,3.18 -0.64,0.24 -1.45,0 -1.95,-0.45 -0.43,-0.38 -0.73,-1.18 -0.33,-1.85 0.28,-0.47 1.13,-0.06 1.55,-0.19 l 11.5,-3.65 c 1.26,-2.17 2.47,-4.2 3.91,-6.25 0.45,-0.64 2.47,-0.09 2.72,0.86 0.29,1.09 -1.34,3.04 -1.69,4.32 1.75,-0.27 3.4,-0.48 4.83,-0.86 0.31,-0.08 0.79,-0.7 1.08,-0.71 0.29,-0.01 0.83,0.4 1.13,0.47 2.99,0.02 6,-0.37 9.08,0.38 -0.24,0.39 -0.76,0.44 -1.22,0.48 -2.59,0.25 -5.11,0.59 -7.76,1.14 0.27,0.49 0.47,1.04 0.21,1.36 l -1.76,2.13 c -0.16,0.2 -0.7,0.45 -0.95,0.39 -0.28,-0.07 -0.75,-0.61 -0.78,-0.93 -0.07,-0.88 0.42,-1.61 0.92,-2.62 l -6.09,1.29 -3.5,6.9 c -1.12,2.21 -3.81,8.32 -3.5,10.76 3.01,-1.5 7.89,-7.77 9.36,-10.63 0.63,-1.21 1.12,-2.55 2.02,-3.61 0.64,-0.76 2.67,0.1 2.67,1.04 -1.12,2.83 -3.19,6.69 -3.5,9.5 2.97,-1.99 5.65,-5.27 7.67,-8.19 l 0.74,-3 c 0.1,-0.42 0.36,-0.97 0.63,-1.15 0.37,-0.23 1.11,-0.15 1.48,0 1.26,0.51 1.74,1.56 1.33,2.79 -0.85,2.58 -1.59,5.08 -2.07,7.92 2.53,-2.9 4.64,-5.91 6.81,-9.01 -0.62,-0.9 -0.76,-1.78 -0.41,-2.71 0.49,-1.29 1.51,-3.18 3.05,-2.43 0.44,0.21 1.12,0.64 1.07,1.28 -0.09,1.11 -0.54,2.01 -0.93,3.08 1.3,-0.27 2.91,-0.36 3.67,-1.39 l 1.21,-1.65 c 0.39,-0.53 2.3,-0.29 2.72,0.75 0.1,0.24 -0.03,0.7 -0.19,1.02 -1.6,3.11 -3.12,6.13 -4,9.54 2.07,-1.14 8.61,-7.83 9.45,-9.47 l 4.02,-7.83 c -2.84,0.53 -5.45,2.1 -7.75,2.14 l -1.62,1.96 c -0.17,0.21 -0.84,0.26 -1.08,0.19 -1.29,-0.41 0.22,-3.3 0.48,-3.99 0.52,-1.35 1.55,-2.4 3.11,-2.4 0.59,0 1.05,0.44 1.12,1.12 l 7.53,-2.13 2.63,-4.23 c 0.2,-0.32 0.43,-0.76 0.7,-0.86 0.36,-0.13 0.98,0 1.34,0.16 0.69,0.32 1.45,1.05 1.09,1.83 l -0.9,1.97 6.01,-1 c 11.27,-1.87 23.59,-2.33 34.62,1.2 l 0.03,0.3 c -12.16,-1.91 -24.84,-1.18 -36.76,1.25 l -5.4,1.1 -3.83,7.19 c -1.06,2 -4.41,8.78 -3.85,10.92 3.12,-1.48 7.39,-6.55 9.19,-9.18 0.49,-0.72 2.52,-4.49 2.53,-4.49 0.64,-0.32 1.64,-0.01 2.2,0.36 0.68,0.46 0.82,1.05 0.48,1.72 -1.36,2.67 -2.86,5.14 -3.88,8.26 3.46,-2.12 8.45,-7.56 10.84,-10.83 0.26,-0.35 0.48,-0.87 0.77,-0.99 0.46,-0.19 1.03,-0.04 1.5,0.11 0.78,0.25 1.37,0.83 1.1,1.77 l -1.01,3.45 c -0.88,3.03 -1.8,5.96 -2.91,8.92 9.4,-1.49 18.4,-2.23 27.61,0.81 0.4,0.14 0.42,0.21 -0.03,0.33 -9.61,-1.18 -19.18,-0.86 -28.68,1.31 -2.69,5.65 -6.12,10.88 -10.25,15.64 -2.76,3.18 -5.77,5.9 -9.24,8.27 -3.47,2.37 -8.5,4.82 -12.85,4.59 -2.15,-0.11 -4.21,-1.17 -5.19,-3.08 -1.56,-3.03 1.86,-7.76 3.87,-9.98 1.42,-1.58 2.93,-2.83 4.57,-4.35 -8.28,-0.08 -23.34,1.15 -31.06,2.76 l -8.2,1.72 c -4.2,0.88 -8.35,1.65 -12.38,2.93 6.02,-1.18 15.11,-3.55 20.95,-3.7 l 1.97,-0.05 c -9.67,1.29 -27.77,5.61 -36.88,8.91 l -12.18,4.41 c -0.16,-0.05 -0.45,-0.14 -0.23,-0.07 l 0.63,-0.5 c -0.82,0.22 -1.34,0.45 -2,0.72 l -5.37,2.26 -8.5,3.88 c -0.18,0.08 -0.79,-0.09 -0.8,-0.28 -0.01,-0.19 0.17,-0.55 0.34,-0.67 l 2.57,-1.64 c 1.75,-1.12 3.48,-2.08 5.39,-3.13 0.39,-0.17 0.18,-0.14 -0.17,-0.07 -0.28,-0.03 -0.52,-0.04 -0.29,-0.25 13.9,-7.25 27,-11.66 42.25,-14.94 8.79,-1.89 21.73,-3.49 30.65,-3.81 1.19,-0.04 2.3,-0.18 3.46,-0.14 l 11.72,0.38 c 7.17,-5.18 15.17,-8.85 23.75,-11.2 1.46,-3.1 2.68,-6.14 3.71,-9.49 l -4.04,4.49 c -1.35,1.5 -2.82,2.86 -4.48,3.96 -0.98,0.66 -2.01,0.71 -2.99,0.19 -0.98,-0.52 -1.55,-1.45 -1.28,-2.71 l -0.15,-0.17 c -1.52,1.83 -2.95,3.49 -4.68,4.93 -1.36,1.14 -2.98,1.13 -4.31,0.08 -1.85,-1.46 -1.45,-3.09 -1.21,-5.35 0,-0.08 0.02,-0.34 -0.02,-0.3 -2.07,2.35 -3.45,4.38 -5.98,6.46 -1.23,1.01 -2.53,1.23 -3.74,0.46 -3.12,-1.97 -0.19,-6.3 0.91,-9.15 -1.09,0.32 -2.12,0.57 -3.22,0.27 l -3.48,5.23 c -1.56,2.34 -3.08,4.64 -5.11,6.62 -0.96,0.47 -2.72,-0.23 -3.08,-1.21 -0.59,-1.58 -0.22,-3.12 -0.18,-4.82 -1.49,1.96 -2.95,3.78 -4.67,5.48 -0.77,0.76 -1.8,1.44 -2.91,1.37 -1.78,-0.11 -2.66,-1.79 -2.46,-3.51 z m -25.62,7.59 c 3.04,-2.12 5.1,-4.66 7.21,-7.24 0.71,-1.02 1.27,-2.02 1.61,-3.22 -3.73,0.5 -8.25,7.14 -8.82,10.46 z m -5.77,-8.66 c -2.83,1.34 -5.68,5.74 -6.82,8.45 2.54,-1.22 6.93,-5.57 6.82,-8.45 z m 53.8,25.43 c 3.47,1.59 10.75,-2.89 13.47,-5.06 6.57,-5.29 11.86,-11.89 16.02,-19.42 -6.8,2.18 -12.96,5.07 -18.75,9.01 l 4.89,1.15 -6.61,-0.07 c -3.65,2.97 -7.9,6.5 -9.55,11.04 -0.35,0.96 -0.57,2.84 0.53,3.35 z"
         id="path10" />
      <path
         d="m 648.36,746.03 c -0.22,-1.31 0.26,-2.7 0.78,-3.83 l 1.1,-2.4 -2.76,1.33 c -1.27,3.04 -3.23,5.8 -5.8,7.81 -1.25,0.97 -2.65,1.04 -3.92,0.25 -2.77,-1.73 -1.76,-5.15 -0.52,-7.56 0.74,-1.45 1.69,-2.61 2.63,-4.09 l -6.98,4.11 c -4.13,9.1 -9.67,17.72 -18.07,23.37 -3.51,2.37 -9.66,5.39 -13.81,3.74 -1.49,-0.59 -2.21,-1.98 -1.82,-3.56 0.48,-1.93 1.6,-3.6 2.96,-5.14 6.79,-7.7 17.98,-13.99 27.01,-18.89 1.96,-4.14 3.7,-8.23 5.42,-12.43 0.33,-0.8 0.68,-1.44 0.84,-2.37 l -2.63,3.12 c -3.03,3.6 -6.01,7.12 -9.34,10.45 -1.43,1.43 -2.89,2.67 -4.6,3.67 -1.24,0.73 -2.59,0.91 -3.87,0.2 -2.87,-1.58 -2.35,-4.92 -1.35,-7.59 1.25,-3.33 3,-6.31 4.74,-9.41 1.07,-1.91 2.09,-3.7 2.77,-5.95 -1.82,0.71 -3.16,1.97 -4.48,3.3 -2.13,2.14 -3.9,4.46 -5.28,7.15 -0.25,0.48 -0.17,0.93 0.05,1.45 -0.36,0.38 -1.24,0.27 -1.69,-0.03 -2.94,-1.95 3.42,-11.68 9.63,-14.14 0.97,-0.38 1.84,-0.1 2.75,0.25 1.45,0.56 2.49,1.7 2.26,3.37 -0.13,0.89 -0.38,1.92 -0.8,2.76 l -2.33,4.7 c -1.56,3.15 -4.73,8.47 -5.03,12.01 3.98,-1.54 11.82,-9.59 14.45,-12.88 l 9.79,-12.26 c 0.84,-1.05 2.22,-1.23 3.14,-0.45 0.28,0.24 0.52,0.58 0.55,0.87 0.03,0.29 -0.27,0.59 -0.5,0.87 -1.81,2.2 -3.71,6.94 -4.83,9.74 l -4.36,10.84 c 2.35,-1.24 4.64,-2.58 6.54,-4.28 0.21,-0.19 0.76,-0.72 0.9,-0.51 0.46,0.72 0,1.36 -0.07,2.28 0.58,-0.42 1.14,-0.9 1.59,-1.33 0.93,-0.89 1.83,-0.11 2.71,0.3 0.94,0.45 2.07,0.63 2.14,2.04 0.03,0.68 0,1.44 -0.03,2.29 1.17,-0.59 2.58,-1.14 3.4,-2.24 l 1.31,-1.76 c 0.54,-0.73 2.08,-0.12 2.44,0.69 0.2,0.45 -0.1,1.04 -0.32,1.46 -1.34,2.48 -2.69,4.85 -3.5,7.62 2.67,-2.21 4.75,-4.75 6.72,-7.48 1.67,-2.32 2.16,-4.77 3.94,-4.1 0.31,0.12 0.7,0.31 0.87,0.49 0.17,0.18 0.17,0.84 0.05,1.06 -1.42,2.72 -2.76,5.32 -3.34,8.46 1.4,-0.9 2.54,-1.94 3.59,-3.15 4.03,-4.65 2.57,-2.71 4.97,-8.13 0.11,-0.24 0.2,-0.78 0.29,-1.05 0.93,-0.51 2.6,0.05 2.61,1.3 0.01,0.96 -0.55,1.89 -0.77,2.86 2.46,-3.02 4.96,-6.1 9.09,-6.55 2.49,-0.27 5.06,-0.1 7.47,0.72 -0.04,0.52 -0.51,0.67 -0.93,0.63 -3.81,-0.39 -7.71,0.34 -10.66,2.89 -3.87,3.35 -7.14,8.66 -9.06,13.47 -1.01,0.3 -2.64,-0.42 -2.78,-1.6 -0.14,-1.18 0.75,-2.19 0.86,-3.47 -1.08,1.28 -2.03,2.56 -3.29,3.59 -1.26,1.03 -3.11,1 -3.98,-0.42 -0.39,-0.64 -0.29,-1.58 -0.3,-2.41 -1.31,1.7 -2.61,3.37 -4.15,4.84 -0.7,0.66 -1.6,1.05 -2.47,0.85 -0.78,-0.17 -1.76,-0.59 -1.94,-1.7 z m -2.22,-9.67 c -0.87,0.79 -1.35,1.68 -1.46,2.81 -0.04,0.41 0.46,0.82 0.82,0.8 0.95,-0.03 1.07,-2.76 0.64,-3.62 z m -6.99,11.32 c 2.79,-1.43 4.66,-3.7 6.16,-6.28 -1.3,-0.39 -2.17,-0.94 -2.64,-2.12 -1.34,1.63 -3.95,6.29 -3.52,8.39 z m -37.23,19.4 c 1.34,0.71 4.92,-0.75 6.43,-1.54 8.31,-4.37 14.77,-12.56 19.11,-20.98 l -4.67,2.64 c -4.3,2.43 -8.28,5.13 -12.19,8.16 -2.71,2.1 -5.12,4.32 -7.23,7 -0.7,0.89 -2.63,4.1 -1.45,4.72 z"
         id="path11" />
      <path
         d="m 598.65,775.27 -1.35,4.83 c 1.74,-2.47 3.34,-4.75 5.55,-6.67 1.38,-1.2 2.89,-1.65 4.74,-1.45 0.58,0.06 1.35,0.08 1.76,0.54 0.11,0.12 0.11,0.52 0,0.62 -0.79,0.73 -1.98,-0.05 -3.93,1.35 -1.95,1.4 -3.4,2.91 -4.79,4.79 -3.07,4.15 -5.4,8.67 -7.22,13.52 -0.16,0.44 -0.59,0.88 -1.1,0.7 -1.1,-0.41 -2.75,-1.26 -2.32,-2.69 0.75,-2.48 1.63,-4.75 2.28,-7.39 l -8.45,10.04 c -2.53,3.01 -5.36,5.54 -8.56,7.83 -2.2,1.58 -4.55,2.81 -7.12,3.49 -2.57,0.68 -5.01,0.14 -7.17,-1.36 -2,-1.38 -3.4,-3.17 -4.02,-5.59 -1.55,-6.02 1.61,-13.73 4.7,-18.98 4.96,-8.43 12.63,-16.63 21.66,-20.69 2.04,-0.92 4.17,-1.47 6.41,-1.55 1.21,-0.05 2.18,0.66 3.2,1.14 1.75,0.81 2.68,2.31 2.39,4.37 -0.53,3.68 -2.41,7.18 -5.18,9.68 -0.83,0.75 -1.85,1.22 -2.9,1.31 -0.97,0.09 -1.98,-0.49 -1.98,-1.45 2.36,-1.14 8.17,-9.69 6.92,-12.22 -3.11,-0.47 -8.57,2.64 -11.09,4.45 -4.59,3.29 -8.44,7.25 -11.76,11.81 -2.57,3.52 -4.71,7.14 -6.33,11.17 -1.59,3.95 -2.95,9.09 -1.34,13.14 0.44,1.11 1.34,1.51 2.51,1.4 2.18,-0.22 4.17,-0.98 6.12,-2.02 9.27,-4.95 18.04,-14.03 24.28,-22.42 0.63,-0.85 0.51,-2.17 0.94,-3.04 0.43,-0.87 1.44,-0.67 2.18,-0.35 0.62,0.28 1.24,0.84 1,1.69 z"
         id="path12" />
      <path
         d="m 555.93,745.65 c -3.98,1.59 -9.94,4.72 -12.44,7.83 v 0.79 c -0.77,0.37 -1.96,-0.06 -1.99,-1.08 -0.08,-2.08 3.55,-4.62 5.2,-5.67 3.4,-2.16 7.04,-3.73 10.77,-5.18 l 5.85,-12.39 1.69,-3.66 c -7.28,2.36 -16.73,6.19 -22.44,11.13 -0.94,0.82 -3.2,3.15 -2.6,4.34 0.17,0.34 0.62,0.68 0.99,0.91 l 0.32,0.21 c 0.08,0.05 -0.25,0.31 -0.37,0.35 -1.32,0.4 -3.02,-0.49 -3.42,-1.94 -0.88,-3.18 3.62,-6.83 5.94,-8.42 8.51,-5.83 20.07,-9.67 30.12,-11.88 5.67,-1.25 11.27,-1.98 17.07,-2.21 5.22,-0.21 14.18,0.23 19.06,2.37 -6.8,-0.53 -13.14,-0.73 -19.76,-0.1 -7.43,0.71 -14.59,2.18 -21.79,4.26 0.65,1 0.43,1.82 0.02,2.76 l -5.39,12.38 5.92,-1.59 c 1.35,-0.36 2.72,-0.64 4.1,-0.83 0.83,-0.12 1.34,0.59 1.39,1.22 0.08,0.86 -0.6,1.17 -1.44,1.29 -3.87,0.56 -7.55,1.67 -11.26,2.94 -2.85,6.72 -5.54,13.29 -7.83,20.16 -0.38,1.15 -2.01,5.37 -0.5,5.45 0.17,0.67 -0.74,1.16 -1.46,1.1 -1.74,-0.15 -2.89,-1.69 -2.82,-3.46 0.06,-1.49 0.35,-2.92 0.81,-4.36 1.15,-3.62 2.4,-7.07 3.82,-10.6 l 2.46,-6.12 z"
         id="path13" />
      <path
         d="m 572.48,755.21 c -1.12,0.32 -2.55,-0.4 -3,-1.37 -1.27,-2.76 2.51,-9.53 3.93,-12.04 0.56,-0.99 1.45,-1.52 2.57,-0.9 0.72,0.2 1.11,0.98 0.73,1.66 -1.76,3.14 -3.18,6.39 -4.13,10 3.17,-2.4 5.64,-5.24 7.99,-8.3 1.51,-5.7 5.42,-14.71 9.35,-18.9 0.82,-0.87 1.84,-0.86 2.85,-0.46 0.83,0.33 1.42,0.87 1.33,1.85 -0.17,1.83 -0.8,3.48 -1.67,5.07 -2.18,4.04 -4.86,7.55 -7.85,11.03 -0.88,2.36 -2.61,7.2 -2.24,9.59 1.97,-0.73 6.58,-6.43 7.21,-8.06 2.03,-5.23 3.6,-10.45 6.52,-15.24 0.9,-1.47 1.72,-2.91 2.87,-4.12 0.79,-0.84 1.74,-0.93 2.74,-0.52 0.82,0.34 1.33,0.87 1.15,1.85 -0.93,5.06 -5.58,10.76 -8.32,15.06 -0.97,1.52 -3.15,8.22 -2.63,10.22 3.68,-1.94 7.85,-7.26 9.9,-10.86 1.98,-0.02 -1.45,4.94 -1.86,5.54 -1.64,2.37 -3.41,4.58 -5.6,6.44 -0.8,0.68 -1.75,1.02 -2.82,0.79 -2.17,-0.45 -3.05,-2.95 -2.77,-5.17 -1.07,1.54 -3.89,5.76 -5.7,6.06 -1.81,0.3 -3.38,-1.03 -3.64,-2.78 -0.16,-1.09 -0.06,-2.18 0.02,-3.32 -1.39,1.71 -4.76,6.23 -6.94,6.86 z m 23.73,-19.11 c 2.13,-2.61 3.85,-5.63 4.59,-9.01 -2.07,2.82 -3.35,5.88 -4.59,9.01 z m -9.57,1.51 c 1.57,-1.74 5.66,-8.16 5.39,-10.42 -1.22,1.5 -2.13,3.03 -2.97,4.72 -0.91,1.84 -1.86,3.59 -2.43,5.7 z"
         id="path14" />
      <path
         d="m 576.01,738.93 c -1.86,0.13 0.84,-8.43 5.19,-7.6 0.43,0.08 0.71,1.06 0.45,1.43 -1.21,1.77 -2.52,3.28 -3.89,4.92 -0.45,0.54 -0.84,1.19 -1.76,1.25 z"
         id="path15" />
    </g>
    <g
       id="g52"
       transform="matrix(3.5461045,0,0,3.5461045,-1619.3448,-1619.3346)">
      <g
         id="g24">
        <path
           d="m 539.88,675.93 c 0.92,-1.66 2.21,-2.95 3.86,-3.87 1.65,-0.92 3.53,-1.39 5.64,-1.39 2.56,0 4.72,0.62 6.48,1.86 1.76,1.24 2.92,2.96 3.49,5.15 h -5.76 c -0.39,-0.71 -0.94,-1.26 -1.66,-1.63 -0.72,-0.37 -1.57,-0.56 -2.55,-0.56 -1.69,0 -3.04,0.55 -4.06,1.66 -1.02,1.11 -1.52,2.59 -1.52,4.44 0,1.97 0.53,3.51 1.6,4.62 1.07,1.11 2.54,1.66 4.41,1.66 1.28,0 2.37,-0.33 3.26,-0.99 0.89,-0.66 1.53,-1.6 1.92,-2.82 h -6.62 v -3.81 h 11.35 v 4.85 c -0.39,1.3 -1.04,2.51 -1.97,3.63 -0.93,1.12 -2.1,2.02 -3.52,2.71 -1.42,0.69 -3.03,1.04 -4.82,1.04 -2.12,0 -4,-0.46 -5.66,-1.39 -1.66,-0.93 -2.95,-2.21 -3.87,-3.86 -0.93,-1.65 -1.39,-3.53 -1.39,-5.64 0,-2.11 0.46,-4 1.39,-5.66 z"
           id="path16" />
        <path
           d="m 573.53,692.32 -4.45,-8.08 h -1.25 v 8.08 h -5.21 v -21.41 h 8.75 c 1.69,0 3.13,0.29 4.32,0.88 1.19,0.59 2.08,1.4 2.67,2.42 0.59,1.03 0.88,2.17 0.88,3.43 0,1.42 -0.4,2.69 -1.2,3.81 -0.8,1.12 -1.99,1.91 -3.55,2.38 l 4.94,8.48 h -5.89 z m -5.7,-11.77 h 3.23 c 0.96,0 1.67,-0.23 2.15,-0.7 0.48,-0.47 0.72,-1.13 0.72,-1.98 0,-0.85 -0.24,-1.49 -0.72,-1.97 -0.48,-0.48 -1.2,-0.72 -2.15,-0.72 h -3.23 z"
           id="path17" />
        <path
           d="m 583,675.93 c 0.92,-1.66 2.21,-2.95 3.86,-3.87 1.65,-0.92 3.53,-1.39 5.64,-1.39 2.56,0 4.72,0.62 6.48,1.86 1.76,1.24 2.92,2.96 3.49,5.15 h -5.76 c -0.39,-0.71 -0.94,-1.26 -1.66,-1.63 -0.72,-0.37 -1.57,-0.56 -2.55,-0.56 -1.69,0 -3.04,0.55 -4.06,1.66 -1.02,1.11 -1.52,2.59 -1.52,4.44 0,1.97 0.53,3.51 1.6,4.62 1.07,1.11 2.54,1.66 4.41,1.66 1.28,0 2.37,-0.33 3.26,-0.99 0.89,-0.66 1.53,-1.6 1.92,-2.82 h -6.62 v -3.81 h 11.35 v 4.85 c -0.39,1.3 -1.04,2.51 -1.97,3.63 -0.93,1.12 -2.1,2.02 -3.52,2.71 -1.42,0.69 -3.03,1.04 -4.82,1.04 -2.12,0 -4,-0.46 -5.66,-1.39 -1.66,-0.93 -2.95,-2.21 -3.87,-3.86 -0.93,-1.65 -1.39,-3.53 -1.39,-5.64 0,-2.11 0.46,-4 1.39,-5.66 z"
           id="path18" />
        <path
           d="m 613.28,675.93 c 0.92,-1.66 2.21,-2.95 3.86,-3.87 1.65,-0.92 3.53,-1.39 5.64,-1.39 2.56,0 4.72,0.62 6.48,1.86 1.76,1.24 2.92,2.96 3.49,5.15 h -5.76 c -0.39,-0.71 -0.94,-1.26 -1.66,-1.63 -0.72,-0.37 -1.57,-0.56 -2.55,-0.56 -1.69,0 -3.04,0.55 -4.06,1.66 -1.02,1.11 -1.52,2.59 -1.52,4.44 0,1.97 0.53,3.51 1.6,4.62 1.07,1.11 2.54,1.66 4.41,1.66 1.28,0 2.37,-0.33 3.26,-0.99 0.89,-0.66 1.53,-1.6 1.92,-2.82 h -6.62 v -3.81 h 11.35 v 4.85 c -0.39,1.3 -1.04,2.51 -1.97,3.63 -0.93,1.12 -2.1,2.02 -3.52,2.71 -1.42,0.69 -3.03,1.04 -4.82,1.04 -2.12,0 -4,-0.46 -5.66,-1.39 -1.66,-0.93 -2.95,-2.21 -3.87,-3.86 -0.93,-1.65 -1.39,-3.53 -1.39,-5.64 0,-2.11 0.46,-4 1.39,-5.66 z"
           id="path19" />
        <path
           d="m 646.93,692.32 -4.45,-8.08 h -1.25 v 8.08 h -5.21 v -21.41 h 8.75 c 1.69,0 3.13,0.29 4.32,0.88 1.19,0.59 2.08,1.4 2.67,2.42 0.59,1.03 0.88,2.17 0.88,3.43 0,1.42 -0.4,2.69 -1.2,3.81 -0.8,1.12 -1.99,1.91 -3.55,2.38 l 4.94,8.48 h -5.89 z m -5.7,-11.77 h 3.23 c 0.96,0 1.67,-0.23 2.15,-0.7 0.48,-0.47 0.72,-1.13 0.72,-1.98 0,-0.85 -0.24,-1.49 -0.72,-1.97 -0.48,-0.48 -1.2,-0.72 -2.15,-0.72 h -3.23 z"
           id="path20" />
        <path
           d="m 660.49,691.13 c -1.68,-0.94 -3.01,-2.24 -3.99,-3.92 -0.99,-1.68 -1.48,-3.56 -1.48,-5.66 0,-2.1 0.49,-3.97 1.48,-5.64 0.99,-1.67 2.32,-2.97 3.99,-3.9 1.67,-0.93 3.52,-1.4 5.54,-1.4 2.02,0 3.86,0.47 5.53,1.4 1.68,0.94 3,2.24 3.97,3.9 0.96,1.67 1.45,3.55 1.45,5.64 0,2.09 -0.49,3.98 -1.46,5.66 -0.97,1.68 -2.3,2.98 -3.97,3.92 -1.67,0.94 -3.51,1.4 -5.52,1.4 -2.01,0 -3.86,-0.47 -5.54,-1.4 z m 9.64,-5.09 c 1.03,-1.12 1.54,-2.61 1.54,-4.48 0,-1.87 -0.51,-3.36 -1.54,-4.48 -1.03,-1.12 -2.39,-1.68 -4.1,-1.68 -1.71,0 -3.11,0.56 -4.13,1.68 -1.03,1.12 -1.54,2.61 -1.54,4.48 0,1.87 0.51,3.36 1.54,4.48 1.03,1.12 2.4,1.68 4.13,1.68 1.73,0 3.07,-0.56 4.1,-1.68 z"
           id="path21" />
        <path
           d="m 684.99,670.91 v 12.78 c 0,1.28 0.31,2.27 0.95,2.96 0.63,0.69 1.56,1.04 2.77,1.04 1.21,0 2.16,-0.35 2.81,-1.04 0.65,-0.69 0.98,-1.68 0.98,-2.96 v -12.78 h 5.21 v 12.78 c 0,1.91 -0.41,3.53 -1.22,4.85 -0.81,1.32 -1.91,2.32 -3.28,2.99 -1.37,0.67 -2.9,1.01 -4.59,1.01 -1.69,0 -3.2,-0.33 -4.53,-0.99 -1.33,-0.66 -2.38,-1.66 -3.16,-2.99 -0.77,-1.33 -1.16,-2.95 -1.16,-4.86 v -12.78 h 5.22 z"
           id="path22" />
        <path
           d="m 716.83,681.2 c -0.57,1.03 -1.44,1.86 -2.62,2.49 -1.18,0.63 -2.64,0.95 -4.39,0.95 h -3.23 v 7.69 h -5.21 v -21.41 h 8.45 c 1.71,0 3.15,0.29 4.33,0.88 1.18,0.59 2.06,1.4 2.65,2.44 0.59,1.04 0.88,2.23 0.88,3.57 0,1.24 -0.28,2.37 -0.85,3.4 z m -5.18,-1.39 c 0.49,-0.49 0.73,-1.16 0.73,-2.01 0,-0.85 -0.24,-1.52 -0.73,-2.01 -0.49,-0.49 -1.23,-0.73 -2.23,-0.73 h -2.84 v 5.49 h 2.84 c 1,0 1.74,-0.24 2.23,-0.73 z"
           id="path23" />
        <path
           d="m 725.61,675.03 v 4.45 h 6.98 v 3.93 h -6.98 v 4.79 h 7.9 v 4.12 H 720.4 v -21.41 h 13.11 v 4.12 z"
           id="path24" />
      </g>
      <g
         id="g51">
        <path
           d="m 543.89,695.47 v 1.49 h -3.17 v 1.67 h 2.37 v 1.44 h -2.37 v 3.17 h -1.89 v -7.77 z"
           id="path25" />
        <path
           d="m 546.06,702.94 c -0.48,-0.26 -0.86,-0.63 -1.14,-1.11 -0.28,-0.48 -0.41,-1.04 -0.41,-1.68 0,-0.64 0.14,-1.19 0.42,-1.68 0.28,-0.48 0.66,-0.85 1.15,-1.11 0.49,-0.26 1.03,-0.39 1.64,-0.39 0.61,0 1.15,0.13 1.64,0.39 0.49,0.26 0.87,0.63 1.15,1.11 0.28,0.48 0.42,1.04 0.42,1.68 0,0.64 -0.14,1.19 -0.43,1.68 -0.28,0.48 -0.67,0.85 -1.16,1.11 -0.49,0.26 -1.04,0.39 -1.64,0.39 -0.6,0 -1.15,-0.13 -1.63,-0.39 z m 2.56,-1.64 c 0.25,-0.27 0.38,-0.65 0.38,-1.15 0,-0.5 -0.12,-0.88 -0.37,-1.15 -0.25,-0.27 -0.55,-0.4 -0.91,-0.4 -0.36,0 -0.68,0.13 -0.92,0.4 -0.24,0.27 -0.37,0.65 -0.37,1.15 0,0.5 0.12,0.88 0.36,1.15 0.24,0.27 0.54,0.4 0.9,0.4 0.36,0 0.67,-0.13 0.92,-0.4 z"
           id="path26" />
        <path
           d="m 553.11,702.94 c -0.48,-0.26 -0.86,-0.63 -1.14,-1.11 -0.28,-0.48 -0.41,-1.04 -0.41,-1.68 0,-0.64 0.14,-1.19 0.42,-1.68 0.28,-0.48 0.66,-0.85 1.15,-1.11 0.49,-0.26 1.03,-0.39 1.64,-0.39 0.61,0 1.15,0.13 1.64,0.39 0.49,0.26 0.87,0.63 1.15,1.11 0.28,0.48 0.42,1.04 0.42,1.68 0,0.64 -0.14,1.19 -0.43,1.68 -0.28,0.48 -0.67,0.85 -1.16,1.11 -0.49,0.26 -1.04,0.39 -1.64,0.39 -0.6,0 -1.15,-0.13 -1.63,-0.39 z m 2.56,-1.64 c 0.25,-0.27 0.38,-0.65 0.38,-1.15 0,-0.5 -0.12,-0.88 -0.37,-1.15 -0.25,-0.27 -0.55,-0.4 -0.91,-0.4 -0.36,0 -0.68,0.13 -0.92,0.4 -0.24,0.27 -0.37,0.65 -0.37,1.15 0,0.5 0.12,0.88 0.36,1.15 0.24,0.27 0.54,0.4 0.9,0.4 0.36,0 0.67,-0.13 0.92,-0.4 z"
           id="path27" />
        <path
           d="m 558.96,698.47 c 0.24,-0.48 0.57,-0.85 0.98,-1.11 0.41,-0.26 0.87,-0.39 1.38,-0.39 0.41,0 0.78,0.08 1.11,0.25 0.34,0.17 0.6,0.4 0.79,0.69 v -2.87 h 1.89 v 8.19 h -1.89 v -0.89 c -0.18,0.3 -0.43,0.53 -0.76,0.71 -0.33,0.18 -0.71,0.27 -1.15,0.27 -0.51,0 -0.97,-0.13 -1.38,-0.39 -0.41,-0.26 -0.74,-0.63 -0.98,-1.12 -0.24,-0.48 -0.36,-1.04 -0.36,-1.68 0,-0.64 0.12,-1.19 0.36,-1.67 z m 3.88,0.56 c -0.26,-0.27 -0.58,-0.41 -0.96,-0.41 -0.38,0 -0.7,0.13 -0.96,0.4 -0.26,0.27 -0.39,0.64 -0.39,1.11 0,0.47 0.13,0.85 0.39,1.12 0.26,0.27 0.58,0.41 0.96,0.41 0.38,0 0.7,-0.14 0.96,-0.41 0.26,-0.27 0.39,-0.65 0.39,-1.12 0,-0.47 -0.13,-0.84 -0.39,-1.12 z"
           id="path28" />
        <path
           d="m 573.93,703.24 -0.68,-0.93 c -0.21,0.3 -0.5,0.55 -0.86,0.73 -0.36,0.18 -0.76,0.28 -1.2,0.28 -0.5,0 -0.94,-0.11 -1.32,-0.32 -0.38,-0.21 -0.67,-0.5 -0.87,-0.87 -0.2,-0.37 -0.3,-0.77 -0.3,-1.22 0,-0.6 0.17,-1.12 0.51,-1.54 0.34,-0.42 0.77,-0.68 1.28,-0.76 -0.18,-0.25 -0.32,-0.5 -0.41,-0.74 -0.09,-0.24 -0.13,-0.49 -0.13,-0.76 0,-0.33 0.09,-0.65 0.27,-0.94 0.18,-0.3 0.44,-0.53 0.78,-0.71 0.34,-0.18 0.75,-0.27 1.23,-0.27 0.66,0 1.19,0.15 1.58,0.45 0.39,0.3 0.63,0.68 0.71,1.14 0.04,0.2 0.07,0.4 0.07,0.61 0,0.16 0,0.28 -0.02,0.37 h -1.79 c 0.03,-0.13 0.04,-0.28 0.02,-0.45 0,-0.16 -0.06,-0.29 -0.15,-0.39 -0.09,-0.1 -0.23,-0.15 -0.39,-0.15 -0.15,0 -0.27,0.05 -0.36,0.14 -0.09,0.1 -0.14,0.21 -0.14,0.35 0,0.1 0.02,0.21 0.07,0.32 0.05,0.11 0.13,0.24 0.25,0.4 l 3.86,5.26 h -2 z m -2.09,-1.74 c 0.17,-0.17 0.25,-0.38 0.25,-0.64 0,-0.26 -0.09,-0.46 -0.25,-0.63 -0.16,-0.17 -0.38,-0.25 -0.63,-0.25 -0.25,0 -0.46,0.08 -0.63,0.25 -0.17,0.17 -0.25,0.37 -0.25,0.63 0,0.26 0.08,0.47 0.25,0.64 0.17,0.17 0.37,0.25 0.63,0.25 0.26,0 0.46,-0.08 0.63,-0.25 z"
           id="path29" />
        <path
           d="m 585.02,699.92 c 0.27,0.35 0.41,0.75 0.41,1.2 0,0.65 -0.23,1.16 -0.68,1.54 -0.45,0.38 -1.09,0.57 -1.9,0.57 h -3.62 v -7.77 h 3.5 c 0.79,0 1.41,0.18 1.85,0.54 0.45,0.36 0.67,0.85 0.67,1.47 0,0.46 -0.12,0.84 -0.36,1.14 -0.24,0.3 -0.56,0.51 -0.96,0.63 0.45,0.1 0.81,0.32 1.08,0.67 z m -3.9,-1.3 h 1.24 c 0.31,0 0.55,-0.07 0.71,-0.21 0.17,-0.14 0.25,-0.34 0.25,-0.61 0,-0.27 -0.08,-0.48 -0.25,-0.63 -0.17,-0.14 -0.4,-0.22 -0.71,-0.22 h -1.24 v 1.66 z m 2.13,2.89 c 0.17,-0.15 0.26,-0.36 0.26,-0.64 0,-0.28 -0.09,-0.49 -0.27,-0.65 -0.18,-0.16 -0.43,-0.24 -0.75,-0.24 h -1.37 v 1.75 h 1.39 c 0.32,0 0.56,-0.07 0.74,-0.22 z"
           id="path30" />
        <path
           d="m 592.31,700.58 h -4.28 c 0.03,0.39 0.15,0.69 0.36,0.9 0.21,0.21 0.48,0.31 0.81,0.31 0.47,0 0.8,-0.2 0.98,-0.6 h 2.01 c -0.1,0.41 -0.29,0.77 -0.56,1.1 -0.27,0.32 -0.61,0.58 -1.01,0.76 -0.41,0.18 -0.86,0.28 -1.36,0.28 -0.6,0 -1.14,-0.13 -1.62,-0.39 -0.47,-0.26 -0.84,-0.63 -1.11,-1.11 -0.27,-0.48 -0.4,-1.04 -0.4,-1.68 0,-0.64 0.13,-1.2 0.39,-1.68 0.26,-0.48 0.63,-0.85 1.1,-1.11 0.47,-0.26 1.01,-0.39 1.63,-0.39 0.62,0 1.13,0.13 1.59,0.38 0.46,0.25 0.83,0.61 1.09,1.07 0.26,0.46 0.39,1 0.39,1.62 0,0.17 -0.01,0.35 -0.03,0.54 z m -1.9,-0.96 c 0,-0.35 -0.11,-0.63 -0.33,-0.83 -0.22,-0.2 -0.5,-0.3 -0.83,-0.3 -0.33,0 -0.6,0.1 -0.81,0.29 -0.22,0.2 -0.35,0.47 -0.4,0.84 h 2.38 z"
           id="path31" />
        <path
           d="m 596.12,701.47 1.34,-4.4 h 2.03 l -2.19,6.18 h -2.35 l -2.19,-6.18 h 2.03 l 1.34,4.4 z"
           id="path32" />
        <path
           d="m 606.05,700.58 h -4.28 c 0.03,0.39 0.15,0.69 0.36,0.9 0.21,0.21 0.48,0.31 0.81,0.31 0.47,0 0.8,-0.2 0.98,-0.6 h 2.01 c -0.1,0.41 -0.29,0.77 -0.56,1.1 -0.27,0.32 -0.61,0.58 -1.01,0.76 -0.41,0.18 -0.86,0.28 -1.36,0.28 -0.6,0 -1.14,-0.13 -1.62,-0.39 -0.47,-0.26 -0.84,-0.63 -1.11,-1.11 -0.27,-0.48 -0.4,-1.04 -0.4,-1.68 0,-0.64 0.13,-1.2 0.39,-1.68 0.26,-0.48 0.63,-0.85 1.1,-1.11 0.47,-0.26 1.01,-0.39 1.63,-0.39 0.62,0 1.13,0.13 1.59,0.38 0.46,0.25 0.83,0.61 1.09,1.07 0.26,0.46 0.39,1 0.39,1.62 0,0.17 -0.01,0.35 -0.03,0.54 z m -1.9,-0.96 c 0,-0.35 -0.11,-0.63 -0.33,-0.83 -0.22,-0.2 -0.5,-0.3 -0.83,-0.3 -0.33,0 -0.6,0.1 -0.81,0.29 -0.22,0.2 -0.35,0.47 -0.4,0.84 h 2.38 z"
           id="path33" />
        <path
           d="m 609.81,697.31 c 0.34,-0.21 0.7,-0.32 1.1,-0.32 v 2 h -0.52 c -0.47,0 -0.83,0.1 -1.06,0.3 -0.24,0.2 -0.35,0.56 -0.35,1.07 v 2.87 h -1.89 v -6.18 h 1.89 v 1.11 c 0.22,-0.36 0.5,-0.65 0.84,-0.86 z"
           id="path34" />
        <path
           d="m 611.8,698.47 c 0.24,-0.48 0.57,-0.85 0.98,-1.11 0.41,-0.26 0.87,-0.39 1.38,-0.39 0.44,0 0.82,0.09 1.15,0.27 0.33,0.18 0.58,0.41 0.76,0.7 v -0.87 h 1.89 v 6.18 h -1.89 v -0.87 c -0.18,0.29 -0.44,0.52 -0.77,0.7 -0.33,0.18 -0.71,0.27 -1.15,0.27 -0.5,0 -0.96,-0.13 -1.37,-0.39 -0.41,-0.26 -0.74,-0.63 -0.98,-1.12 -0.24,-0.48 -0.36,-1.04 -0.36,-1.68 0,-0.64 0.12,-1.19 0.36,-1.67 z m 3.88,0.56 c -0.26,-0.27 -0.58,-0.41 -0.96,-0.41 -0.38,0 -0.7,0.13 -0.96,0.4 -0.26,0.27 -0.39,0.64 -0.39,1.11 0,0.47 0.13,0.85 0.39,1.12 0.26,0.27 0.58,0.41 0.96,0.41 0.38,0 0.7,-0.14 0.96,-0.41 0.26,-0.27 0.39,-0.65 0.39,-1.12 0,-0.47 -0.13,-0.84 -0.39,-1.12 z"
           id="path35" />
        <path
           d="m 622.83,697.24 c 0.33,0.18 0.58,0.41 0.76,0.7 v -0.87 h 1.89 v 6.16 c 0,0.57 -0.11,1.08 -0.34,1.54 -0.23,0.46 -0.57,0.83 -1.03,1.1 -0.46,0.27 -1.03,0.41 -1.72,0.41 -0.91,0 -1.66,-0.22 -2.22,-0.65 -0.57,-0.43 -0.89,-1.02 -0.97,-1.75 h 1.87 c 0.06,0.24 0.2,0.42 0.42,0.56 0.22,0.14 0.49,0.2 0.82,0.2 0.39,0 0.7,-0.11 0.93,-0.34 0.23,-0.23 0.35,-0.58 0.35,-1.08 v -0.87 c -0.18,0.29 -0.44,0.52 -0.76,0.7 -0.32,0.18 -0.7,0.27 -1.14,0.27 -0.51,0 -0.97,-0.13 -1.38,-0.39 -0.41,-0.26 -0.74,-0.63 -0.98,-1.12 -0.24,-0.48 -0.36,-1.04 -0.36,-1.68 0,-0.64 0.12,-1.19 0.36,-1.67 0.24,-0.48 0.57,-0.85 0.98,-1.11 0.41,-0.26 0.87,-0.39 1.38,-0.39 0.44,0 0.82,0.09 1.15,0.27 z m 0.36,1.79 c -0.26,-0.27 -0.58,-0.41 -0.96,-0.41 -0.38,0 -0.7,0.13 -0.96,0.4 -0.26,0.27 -0.39,0.64 -0.39,1.11 0,0.47 0.13,0.85 0.39,1.12 0.26,0.27 0.58,0.41 0.96,0.41 0.38,0 0.7,-0.14 0.96,-0.41 0.26,-0.27 0.39,-0.65 0.39,-1.12 0,-0.47 -0.13,-0.84 -0.39,-1.12 z"
           id="path36" />
        <path
           d="m 632.64,700.58 h -4.28 c 0.03,0.39 0.15,0.69 0.36,0.9 0.21,0.21 0.48,0.31 0.81,0.31 0.47,0 0.8,-0.2 0.98,-0.6 h 2.01 c -0.1,0.41 -0.29,0.77 -0.56,1.1 -0.27,0.32 -0.61,0.58 -1.01,0.76 -0.41,0.18 -0.86,0.28 -1.36,0.28 -0.6,0 -1.14,-0.13 -1.62,-0.39 -0.47,-0.26 -0.84,-0.63 -1.11,-1.11 -0.27,-0.48 -0.4,-1.04 -0.4,-1.68 0,-0.64 0.13,-1.2 0.39,-1.68 0.26,-0.48 0.63,-0.85 1.1,-1.11 0.47,-0.26 1.01,-0.39 1.63,-0.39 0.62,0 1.13,0.13 1.59,0.38 0.46,0.25 0.83,0.61 1.09,1.07 0.26,0.46 0.39,1 0.39,1.62 0,0.17 -0.01,0.35 -0.03,0.54 z m -1.91,-0.96 c 0,-0.35 -0.11,-0.63 -0.33,-0.83 -0.22,-0.2 -0.5,-0.3 -0.83,-0.3 -0.33,0 -0.6,0.1 -0.81,0.29 -0.22,0.2 -0.35,0.47 -0.4,0.84 h 2.38 z"
           id="path37" />
        <path
           d="m 642.95,695.47 v 7.77 h -1.89 v -3.22 h -2.94 v 3.22 h -1.89 v -7.77 h 1.89 v 3.05 h 2.94 v -3.05 z"
           id="path38" />
        <path
           d="m 650.41,697.06 v 6.18 h -1.89 v -0.84 c -0.19,0.27 -0.45,0.49 -0.78,0.66 -0.33,0.17 -0.69,0.25 -1.09,0.25 -0.47,0 -0.89,-0.11 -1.25,-0.32 -0.36,-0.21 -0.64,-0.51 -0.84,-0.91 -0.2,-0.4 -0.3,-0.87 -0.3,-1.41 v -3.61 h 1.88 v 3.35 c 0,0.41 0.11,0.73 0.32,0.96 0.21,0.23 0.5,0.34 0.86,0.34 0.36,0 0.66,-0.11 0.87,-0.34 0.21,-0.23 0.32,-0.55 0.32,-0.96 v -3.35 h 1.89 z"
           id="path39" />
        <path
           d="m 654.42,697.24 c 0.33,-0.18 0.71,-0.27 1.14,-0.27 0.51,0 0.97,0.13 1.38,0.39 0.41,0.26 0.74,0.63 0.98,1.11 0.24,0.48 0.36,1.04 0.36,1.67 0,0.63 -0.12,1.19 -0.36,1.68 -0.24,0.48 -0.57,0.86 -0.98,1.12 -0.41,0.26 -0.87,0.39 -1.38,0.39 -0.44,0 -0.82,-0.09 -1.14,-0.26 -0.32,-0.17 -0.58,-0.4 -0.76,-0.69 v 0.86 h -1.89 v -8.19 h 1.89 v 2.89 c 0.18,-0.29 0.43,-0.52 0.76,-0.7 z m 1.55,1.79 c -0.26,-0.27 -0.58,-0.4 -0.97,-0.4 -0.39,0 -0.7,0.14 -0.96,0.41 -0.26,0.27 -0.39,0.65 -0.39,1.12 0,0.47 0.13,0.84 0.39,1.12 0.26,0.27 0.58,0.41 0.96,0.41 0.38,0 0.7,-0.14 0.96,-0.41 0.27,-0.28 0.4,-0.65 0.4,-1.12 0,-0.47 -0.13,-0.84 -0.39,-1.11 z"
           id="path40" />
        <path
           d="m 663.71,704.67 h -1.89 v -10.45 h 1.89 z"
           id="path41" />
        <path
           d="m 669.51,695.47 v 7.77 h -1.89 v -7.77 z"
           id="path42" />
        <path
           d="m 675.94,695.47 v 1.49 h -3.17 v 1.67 h 2.37 v 1.44 h -2.37 v 3.17 h -1.89 v -7.77 z"
           id="path43" />
        <path
           d="m 678.22,703.04 c -0.45,-0.18 -0.81,-0.46 -1.08,-0.82 -0.27,-0.36 -0.41,-0.8 -0.43,-1.31 h 2.01 c 0.03,0.3 0.13,0.52 0.3,0.67 0.17,0.16 0.39,0.23 0.66,0.23 0.27,0 0.5,-0.07 0.66,-0.2 0.16,-0.14 0.24,-0.32 0.24,-0.55 0,-0.19 -0.06,-0.35 -0.19,-0.48 -0.13,-0.13 -0.29,-0.23 -0.48,-0.31 -0.19,-0.08 -0.46,-0.17 -0.8,-0.28 -0.5,-0.16 -0.91,-0.31 -1.23,-0.46 -0.32,-0.15 -0.59,-0.38 -0.82,-0.69 -0.23,-0.3 -0.34,-0.7 -0.34,-1.18 0,-0.72 0.26,-1.29 0.79,-1.7 0.52,-0.41 1.21,-0.61 2.05,-0.61 0.84,0 1.55,0.2 2.07,0.61 0.52,0.41 0.8,0.98 0.84,1.71 h -2.05 c -0.01,-0.27 -0.11,-0.47 -0.27,-0.61 -0.17,-0.14 -0.39,-0.22 -0.66,-0.22 -0.23,0 -0.41,0.06 -0.55,0.19 -0.14,0.13 -0.21,0.31 -0.21,0.54 0,0.25 0.12,0.45 0.35,0.59 0.24,0.14 0.6,0.29 1.11,0.45 0.5,0.17 0.91,0.33 1.22,0.49 0.31,0.15 0.58,0.38 0.81,0.68 0.23,0.3 0.34,0.68 0.34,1.14 0,0.46 -0.11,0.84 -0.34,1.21 -0.23,0.36 -0.55,0.65 -0.98,0.86 -0.43,0.21 -0.93,0.32 -1.52,0.32 -0.59,0 -1.08,-0.09 -1.53,-0.28 z"
           id="path44" />
        <path
           d="m 693.24,703.24 h -1.89 l -3.17,-4.79 v 4.79 h -1.89 v -7.77 h 1.89 l 3.17,4.81 v -4.81 h 1.89 z"
           id="path45" />
        <path
           d="m 700.4,700.58 h -4.28 c 0.03,0.39 0.15,0.69 0.36,0.9 0.21,0.21 0.48,0.31 0.81,0.31 0.47,0 0.8,-0.2 0.98,-0.6 h 2.01 c -0.1,0.41 -0.29,0.77 -0.56,1.1 -0.27,0.32 -0.61,0.58 -1.01,0.76 -0.41,0.18 -0.86,0.28 -1.36,0.28 -0.6,0 -1.14,-0.13 -1.62,-0.39 -0.47,-0.26 -0.84,-0.63 -1.11,-1.11 -0.27,-0.48 -0.4,-1.04 -0.4,-1.68 0,-0.64 0.13,-1.2 0.39,-1.68 0.26,-0.48 0.63,-0.85 1.1,-1.11 0.47,-0.26 1.01,-0.39 1.63,-0.39 0.62,0 1.13,0.13 1.59,0.38 0.46,0.25 0.83,0.61 1.09,1.07 0.26,0.46 0.39,1 0.39,1.62 0,0.17 -0.01,0.35 -0.03,0.54 z m -1.9,-0.96 c 0,-0.35 -0.11,-0.63 -0.33,-0.83 -0.22,-0.2 -0.5,-0.3 -0.83,-0.3 -0.33,0 -0.6,0.1 -0.81,0.29 -0.22,0.2 -0.35,0.47 -0.4,0.84 h 2.38 z"
           id="path46" />
        <path
           d="m 704.88,701.63 v 1.6 h -0.96 c -0.69,0 -1.22,-0.17 -1.6,-0.5 -0.38,-0.34 -0.58,-0.88 -0.58,-1.64 v -2.46 h -0.75 v -1.57 h 0.75 v -1.5 h 1.89 v 1.5 h 1.24 v 1.57 h -1.24 v 2.48 c 0,0.18 0.04,0.32 0.13,0.4 0.09,0.08 0.24,0.12 0.44,0.12 z"
           id="path47" />
        <path
           d="m 714.79,697.06 -1.67,6.18 h -2.09 l -0.97,-4.01 -1.01,4.01 h -2.08 l -1.68,-6.18 h 1.89 l 0.87,4.42 1.04,-4.42 h 2 l 1.05,4.39 0.86,-4.39 h 1.78 z"
           id="path48" />
        <path
           d="m 716.69,702.94 c -0.48,-0.26 -0.86,-0.63 -1.14,-1.11 -0.28,-0.48 -0.41,-1.04 -0.41,-1.68 0,-0.64 0.14,-1.19 0.42,-1.68 0.28,-0.48 0.66,-0.85 1.15,-1.11 0.49,-0.26 1.03,-0.39 1.64,-0.39 0.61,0 1.15,0.13 1.64,0.39 0.49,0.26 0.87,0.63 1.15,1.11 0.28,0.48 0.42,1.04 0.42,1.68 0,0.64 -0.14,1.19 -0.43,1.68 -0.28,0.48 -0.67,0.85 -1.16,1.11 -0.49,0.26 -1.04,0.39 -1.64,0.39 -0.6,0 -1.15,-0.13 -1.63,-0.39 z m 2.55,-1.64 c 0.25,-0.27 0.38,-0.65 0.38,-1.15 0,-0.5 -0.12,-0.88 -0.37,-1.15 -0.25,-0.27 -0.55,-0.4 -0.91,-0.4 -0.36,0 -0.68,0.13 -0.92,0.4 -0.24,0.27 -0.37,0.65 -0.37,1.15 0,0.5 0.12,0.88 0.36,1.15 0.24,0.27 0.54,0.4 0.9,0.4 0.36,0 0.67,-0.13 0.92,-0.4 z"
           id="path49" />
        <path
           d="m 725.29,697.31 c 0.34,-0.21 0.7,-0.32 1.1,-0.32 v 2 h -0.52 c -0.47,0 -0.83,0.1 -1.06,0.3 -0.24,0.2 -0.35,0.56 -0.35,1.07 v 2.87 h -1.89 v -6.18 h 1.89 v 1.11 c 0.22,-0.36 0.5,-0.65 0.84,-0.86 z"
           id="path50" />
        <path
           d="m 731.07,703.24 -1.88,-2.59 v 2.59 h -1.89 v -8.19 h 1.89 v 4.53 l 1.87,-2.51 h 2.34 l -2.57,3.1 2.59,3.08 h -2.35 z"
           id="path51" />
      </g>
    </g>
  </g>
</svg>
