<?xml version="1.0" encoding="UTF-8" standalone="no"?>
<!-- Created with Inkscape (http://www.inkscape.org/) -->

<svg
   version="1.1"
   id="svg1"
   width="1024.2375"
   height="1005.8988"
   viewBox="0 0 1024.2375 1005.8988"
   xmlns="http://www.w3.org/2000/svg"
   xmlns:svg="http://www.w3.org/2000/svg">
  <defs
     id="defs1" />
  <g
     id="g1"
     transform="translate(0.08446105,0.59079462)">
    <path
       style="fill:#ff5555"
       d="M 486.5,1004.3096 C 162.06295,982.90008 -60.707888,689.14105 14.612294,382.05003 76.497836,129.73394 318.24467,-30.471909 584.95837,4.0811573 926.21166,48.290912 1124.6627,416.41354 971.98098,722 882.04278,902.00771 683.73444,1017.325 486.5,1004.3096 Z m 68,-65.31942 C 828.57964,909.62926 1010.5487,656.90356 946.02381,395.2266 882.60846,138.04913 597.06388,-5.3746503 345.65018,93.669978 126.86585,179.86024 14.570592,415.53762 87.020044,636.46471 143.44035,808.51257 301.74986,928.6538 487.5,940.38929 c 10.59838,0.6696 56.66976,-0.29248 67,-1.39911 z M 488,912.43538 C 275.26101,891.40293 113.10062,716.82091 113.01071,508.72156 112.9066,267.76234 316.70687,82.21224 554.70975,106.57637 c 23.17655,2.37256 79.32822,13.94405 79.27793,16.33725 -0.007,0.32251 -3.26928,1.89227 -7.25,3.48837 C 511.78344,172.49351 421.89242,267.504 383.49292,383.5 361.19819,450.84722 355.73606,521.56714 369.50723,564.57703 398.41011,654.846 507.64619,698.7043 592.445,654.08657 690.27855,602.61048 800.90823,691.51428 768.32438,795.42608 744.16318,872.47756 617.71158,925.25932 488,912.43538 Z M 801.40356,796.5 C 814.35254,745.68652 793.51318,680.14984 753.5,645.85045 725.78033,622.08909 699.04762,612.15612 643.5,604.97819 574.34615,596.04203 552.41702,516.03272 605.2343,465.36424 625.00718,446.39579 636.20731,443.94228 710,442.41416 c 81.8077,-1.6941 114.52673,6.54752 142.76498,35.96114 53.3394,55.55956 51.63244,180.49819 -3.60174,263.6247 -12.67221,19.07146 -49.41646,61.00142 -47.75968,54.5 z M 500,620.44717 C 418.87393,603.05089 383.95838,505.71904 435.66232,441.0971 474.65936,392.35683 550.42519,386.68107 550.42519,432.5 c 0,17.58813 -11.31785,28.30988 -31.61607,29.95091 -51.14059,4.13451 -65.42585,69.52184 -20.17858,92.36259 5.73156,2.89328 9.03781,3.72124 24.77117,6.20327 16.35553,2.58017 26.57875,14.11289 26.57875,29.98323 0,22.9187 -21.46074,35.5628 -49.98046,29.44717 z m 11.99353,-80.38151 c -22.09952,-6.72237 -28.55388,-35.29947 -11.49415,-50.8911 19.41962,-17.74844 49.73908,-4.18214 49.89534,22.32544 0.11685,19.82167 -19.40555,34.34387 -38.40119,28.56566 z M 417,381.50594 c 0,-1.46072 14.10318,-33.73782 19.08156,-43.67082 39.25984,-78.33229 112.04515,-144.6938 196.9527,-179.57029 31.1852,-12.80958 37.05251,-12.94503 44.92856,-1.0372 C 740.57128,251.88561 663.43635,372.41664 555,349.36932 510.37917,339.88551 459.42507,350.00591 426.20834,374.94967 421.14375,378.75287 417,381.70319 417,381.50594 Z"
       id="path1" />
  </g>
</svg>
