<?xml version="1.0" encoding="UTF-8" standalone="no"?>
<!-- Created with Inkscape (http://www.inkscape.org/) -->

<svg
   version="1.1"
   id="svg1"
   width="320"
   height="320"
   viewBox="0 0 320 320"
   xmlns="http://www.w3.org/2000/svg"
   xmlns:svg="http://www.w3.org/2000/svg">
  <defs
     id="defs1" />
  <g
     id="g1">
    <g
       id="g15"
       transform="matrix(0.71972399,0,0,0.71972399,-235.81711,-348.80258)"
       style="fill:#999999">
      <path
         d="m 647.63,772.92 c -1.87,2.11 -4.54,7.04 -7.47,6.55 -2.44,-0.41 -3.22,-2.52 -2.96,-4.97 -1.18,1.62 -2.39,3.13 -3.92,4.45 -1.21,1.04 -3.08,1.04 -4.08,-0.33 -0.28,-0.39 -0.3,-1.22 -0.43,-1.81 l -2.69,3.27 c -0.99,1.2 -2.13,2.19 -3.41,3.04 -0.64,0.42 -1.44,0.37 -2.09,0.12 -1.23,-0.47 -1.93,-1.41 -1.89,-2.87 l -3.01,3.33 c -1.21,1.34 -2.67,2.49 -4.21,3.34 -1.43,0.79 -2.83,0.72 -4.16,-0.07 -3.5,-2.07 -2.42,-6.04 -0.88,-9.08 1.54,-3.04 3.83,-5.83 6.86,-7.57 2.45,-1.4 5,0.41 5.16,1.32 0.47,2.67 -2.37,5.86 -4.17,7.59 -1.51,1.45 -3.35,2.36 -5.43,2.73 -0.55,1.1 -0.72,2.46 -0.15,3.67 2.99,-0.46 9,-6.46 10.64,-8.74 1.64,-2.28 2.82,-4.97 5.21,-6.88 2.12,-1.7 4.77,-3.79 7.29,-1.07 0.26,-0.31 0.64,-0.68 0.94,-0.71 0.86,-0.09 1.97,0.68 1.91,1.53 -0.94,2.45 -2.42,4.65 -2.61,7.51 2.26,-2.19 4.95,-4.3 6.2,-7.07 l 4.03,-9 c -3.19,0.95 -6.1,2.05 -9.18,3.18 -0.64,0.24 -1.45,0 -1.95,-0.45 -0.43,-0.38 -0.73,-1.18 -0.33,-1.85 0.28,-0.47 1.13,-0.06 1.55,-0.19 l 11.5,-3.65 c 1.26,-2.17 2.47,-4.2 3.91,-6.25 0.45,-0.64 2.47,-0.09 2.72,0.86 0.29,1.09 -1.34,3.04 -1.69,4.32 1.75,-0.27 3.4,-0.48 4.83,-0.86 0.31,-0.08 0.79,-0.7 1.08,-0.71 0.29,-0.01 0.83,0.4 1.13,0.47 2.99,0.02 6,-0.37 9.08,0.38 -0.24,0.39 -0.76,0.44 -1.22,0.48 -2.59,0.25 -5.11,0.59 -7.76,1.14 0.27,0.49 0.47,1.04 0.21,1.36 l -1.76,2.13 c -0.16,0.2 -0.7,0.45 -0.95,0.39 -0.28,-0.07 -0.75,-0.61 -0.78,-0.93 -0.07,-0.88 0.42,-1.61 0.92,-2.62 l -6.09,1.29 -3.5,6.9 c -1.12,2.21 -3.81,8.32 -3.5,10.76 3.01,-1.5 7.89,-7.77 9.36,-10.63 0.63,-1.21 1.12,-2.55 2.02,-3.61 0.64,-0.76 2.67,0.1 2.67,1.04 -1.12,2.83 -3.19,6.69 -3.5,9.5 2.97,-1.99 5.65,-5.27 7.67,-8.19 l 0.74,-3 c 0.1,-0.42 0.36,-0.97 0.63,-1.15 0.37,-0.23 1.11,-0.15 1.48,0 1.26,0.51 1.74,1.56 1.33,2.79 -0.85,2.58 -1.59,5.08 -2.07,7.92 2.53,-2.9 4.64,-5.91 6.81,-9.01 -0.62,-0.9 -0.76,-1.78 -0.41,-2.71 0.49,-1.29 1.51,-3.18 3.05,-2.43 0.44,0.21 1.12,0.64 1.07,1.28 -0.09,1.11 -0.54,2.01 -0.93,3.08 1.3,-0.27 2.91,-0.36 3.67,-1.39 l 1.21,-1.65 c 0.39,-0.53 2.3,-0.29 2.72,0.75 0.1,0.24 -0.03,0.7 -0.19,1.02 -1.6,3.11 -3.12,6.13 -4,9.54 2.07,-1.14 8.61,-7.83 9.45,-9.47 l 4.02,-7.83 c -2.84,0.53 -5.45,2.1 -7.75,2.14 l -1.62,1.96 c -0.17,0.21 -0.84,0.26 -1.08,0.19 -1.29,-0.41 0.22,-3.3 0.48,-3.99 0.52,-1.35 1.55,-2.4 3.11,-2.4 0.59,0 1.05,0.44 1.12,1.12 l 7.53,-2.13 2.63,-4.23 c 0.2,-0.32 0.43,-0.76 0.7,-0.86 0.36,-0.13 0.98,0 1.34,0.16 0.69,0.32 1.45,1.05 1.09,1.83 l -0.9,1.97 6.01,-1 c 11.27,-1.87 23.59,-2.33 34.62,1.2 l 0.03,0.3 c -12.16,-1.91 -24.84,-1.18 -36.76,1.25 l -5.4,1.1 -3.83,7.19 c -1.06,2 -4.41,8.78 -3.85,10.92 3.12,-1.48 7.39,-6.55 9.19,-9.18 0.49,-0.72 2.52,-4.49 2.53,-4.49 0.64,-0.32 1.64,-0.01 2.2,0.36 0.68,0.46 0.82,1.05 0.48,1.72 -1.36,2.67 -2.86,5.14 -3.88,8.26 3.46,-2.12 8.45,-7.56 10.84,-10.83 0.26,-0.35 0.48,-0.87 0.77,-0.99 0.46,-0.19 1.03,-0.04 1.5,0.11 0.78,0.25 1.37,0.83 1.1,1.77 l -1.01,3.45 c -0.88,3.03 -1.8,5.96 -2.91,8.92 9.4,-1.49 18.4,-2.23 27.61,0.81 0.4,0.14 0.42,0.21 -0.03,0.33 -9.61,-1.18 -19.18,-0.86 -28.68,1.31 -2.69,5.65 -6.12,10.88 -10.25,15.64 -2.76,3.18 -5.77,5.9 -9.24,8.27 -3.47,2.37 -8.5,4.82 -12.85,4.59 -2.15,-0.11 -4.21,-1.17 -5.19,-3.08 -1.56,-3.03 1.86,-7.76 3.87,-9.98 1.42,-1.58 2.93,-2.83 4.57,-4.35 -8.28,-0.08 -23.34,1.15 -31.06,2.76 l -8.2,1.72 c -4.2,0.88 -8.35,1.65 -12.38,2.93 6.02,-1.18 15.11,-3.55 20.95,-3.7 l 1.97,-0.05 c -9.67,1.29 -27.77,5.61 -36.88,8.91 l -12.18,4.41 c -0.16,-0.05 -0.45,-0.14 -0.23,-0.07 l 0.63,-0.5 c -0.82,0.22 -1.34,0.45 -2,0.72 l -5.37,2.26 -8.5,3.88 c -0.18,0.08 -0.79,-0.09 -0.8,-0.28 -0.01,-0.19 0.17,-0.55 0.34,-0.67 l 2.57,-1.64 c 1.75,-1.12 3.48,-2.08 5.39,-3.13 0.39,-0.17 0.18,-0.14 -0.17,-0.07 -0.28,-0.03 -0.52,-0.04 -0.29,-0.25 13.9,-7.25 27,-11.66 42.25,-14.94 8.79,-1.89 21.73,-3.49 30.65,-3.81 1.19,-0.04 2.3,-0.18 3.46,-0.14 l 11.72,0.38 c 7.17,-5.18 15.17,-8.85 23.75,-11.2 1.46,-3.1 2.68,-6.14 3.71,-9.49 l -4.04,4.49 c -1.35,1.5 -2.82,2.86 -4.48,3.96 -0.98,0.66 -2.01,0.71 -2.99,0.19 -0.98,-0.52 -1.55,-1.45 -1.28,-2.71 l -0.15,-0.17 c -1.52,1.83 -2.95,3.49 -4.68,4.93 -1.36,1.14 -2.98,1.13 -4.31,0.08 -1.85,-1.46 -1.45,-3.09 -1.21,-5.35 0,-0.08 0.02,-0.34 -0.02,-0.3 -2.07,2.35 -3.45,4.38 -5.98,6.46 -1.23,1.01 -2.53,1.23 -3.74,0.46 -3.12,-1.97 -0.19,-6.3 0.91,-9.15 -1.09,0.32 -2.12,0.57 -3.22,0.27 l -3.48,5.23 c -1.56,2.34 -3.08,4.64 -5.11,6.62 -0.96,0.47 -2.72,-0.23 -3.08,-1.21 -0.59,-1.58 -0.22,-3.12 -0.18,-4.82 -1.49,1.96 -2.95,3.78 -4.67,5.48 -0.77,0.76 -1.8,1.44 -2.91,1.37 -1.78,-0.11 -2.66,-1.79 -2.46,-3.51 z m -25.62,7.59 c 3.04,-2.12 5.1,-4.66 7.21,-7.24 0.71,-1.02 1.27,-2.02 1.61,-3.22 -3.73,0.5 -8.25,7.14 -8.82,10.46 z m -5.77,-8.66 c -2.83,1.34 -5.68,5.74 -6.82,8.45 2.54,-1.22 6.93,-5.57 6.82,-8.45 z m 53.8,25.43 c 3.47,1.59 10.75,-2.89 13.47,-5.06 6.57,-5.29 11.86,-11.89 16.02,-19.42 -6.8,2.18 -12.96,5.07 -18.75,9.01 l 4.89,1.15 -6.61,-0.07 c -3.65,2.97 -7.9,6.5 -9.55,11.04 -0.35,0.96 -0.57,2.84 0.53,3.35 z"
         id="path10"
         style="fill:#999999" />
      <path
         d="m 648.36,746.03 c -0.22,-1.31 0.26,-2.7 0.78,-3.83 l 1.1,-2.4 -2.76,1.33 c -1.27,3.04 -3.23,5.8 -5.8,7.81 -1.25,0.97 -2.65,1.04 -3.92,0.25 -2.77,-1.73 -1.76,-5.15 -0.52,-7.56 0.74,-1.45 1.69,-2.61 2.63,-4.09 l -6.98,4.11 c -4.13,9.1 -9.67,17.72 -18.07,23.37 -3.51,2.37 -9.66,5.39 -13.81,3.74 -1.49,-0.59 -2.21,-1.98 -1.82,-3.56 0.48,-1.93 1.6,-3.6 2.96,-5.14 6.79,-7.7 17.98,-13.99 27.01,-18.89 1.96,-4.14 3.7,-8.23 5.42,-12.43 0.33,-0.8 0.68,-1.44 0.84,-2.37 l -2.63,3.12 c -3.03,3.6 -6.01,7.12 -9.34,10.45 -1.43,1.43 -2.89,2.67 -4.6,3.67 -1.24,0.73 -2.59,0.91 -3.87,0.2 -2.87,-1.58 -2.35,-4.92 -1.35,-7.59 1.25,-3.33 3,-6.31 4.74,-9.41 1.07,-1.91 2.09,-3.7 2.77,-5.95 -1.82,0.71 -3.16,1.97 -4.48,3.3 -2.13,2.14 -3.9,4.46 -5.28,7.15 -0.25,0.48 -0.17,0.93 0.05,1.45 -0.36,0.38 -1.24,0.27 -1.69,-0.03 -2.94,-1.95 3.42,-11.68 9.63,-14.14 0.97,-0.38 1.84,-0.1 2.75,0.25 1.45,0.56 2.49,1.7 2.26,3.37 -0.13,0.89 -0.38,1.92 -0.8,2.76 l -2.33,4.7 c -1.56,3.15 -4.73,8.47 -5.03,12.01 3.98,-1.54 11.82,-9.59 14.45,-12.88 l 9.79,-12.26 c 0.84,-1.05 2.22,-1.23 3.14,-0.45 0.28,0.24 0.52,0.58 0.55,0.87 0.03,0.29 -0.27,0.59 -0.5,0.87 -1.81,2.2 -3.71,6.94 -4.83,9.74 l -4.36,10.84 c 2.35,-1.24 4.64,-2.58 6.54,-4.28 0.21,-0.19 0.76,-0.72 0.9,-0.51 0.46,0.72 0,1.36 -0.07,2.28 0.58,-0.42 1.14,-0.9 1.59,-1.33 0.93,-0.89 1.83,-0.11 2.71,0.3 0.94,0.45 2.07,0.63 2.14,2.04 0.03,0.68 0,1.44 -0.03,2.29 1.17,-0.59 2.58,-1.14 3.4,-2.24 l 1.31,-1.76 c 0.54,-0.73 2.08,-0.12 2.44,0.69 0.2,0.45 -0.1,1.04 -0.32,1.46 -1.34,2.48 -2.69,4.85 -3.5,7.62 2.67,-2.21 4.75,-4.75 6.72,-7.48 1.67,-2.32 2.16,-4.77 3.94,-4.1 0.31,0.12 0.7,0.31 0.87,0.49 0.17,0.18 0.17,0.84 0.05,1.06 -1.42,2.72 -2.76,5.32 -3.34,8.46 1.4,-0.9 2.54,-1.94 3.59,-3.15 4.03,-4.65 2.57,-2.71 4.97,-8.13 0.11,-0.24 0.2,-0.78 0.29,-1.05 0.93,-0.51 2.6,0.05 2.61,1.3 0.01,0.96 -0.55,1.89 -0.77,2.86 2.46,-3.02 4.96,-6.1 9.09,-6.55 2.49,-0.27 5.06,-0.1 7.47,0.72 -0.04,0.52 -0.51,0.67 -0.93,0.63 -3.81,-0.39 -7.71,0.34 -10.66,2.89 -3.87,3.35 -7.14,8.66 -9.06,13.47 -1.01,0.3 -2.64,-0.42 -2.78,-1.6 -0.14,-1.18 0.75,-2.19 0.86,-3.47 -1.08,1.28 -2.03,2.56 -3.29,3.59 -1.26,1.03 -3.11,1 -3.98,-0.42 -0.39,-0.64 -0.29,-1.58 -0.3,-2.41 -1.31,1.7 -2.61,3.37 -4.15,4.84 -0.7,0.66 -1.6,1.05 -2.47,0.85 -0.78,-0.17 -1.76,-0.59 -1.94,-1.7 z m -2.22,-9.67 c -0.87,0.79 -1.35,1.68 -1.46,2.81 -0.04,0.41 0.46,0.82 0.82,0.8 0.95,-0.03 1.07,-2.76 0.64,-3.62 z m -6.99,11.32 c 2.79,-1.43 4.66,-3.7 6.16,-6.28 -1.3,-0.39 -2.17,-0.94 -2.64,-2.12 -1.34,1.63 -3.95,6.29 -3.52,8.39 z m -37.23,19.4 c 1.34,0.71 4.92,-0.75 6.43,-1.54 8.31,-4.37 14.77,-12.56 19.11,-20.98 l -4.67,2.64 c -4.3,2.43 -8.28,5.13 -12.19,8.16 -2.71,2.1 -5.12,4.32 -7.23,7 -0.7,0.89 -2.63,4.1 -1.45,4.72 z"
         id="path11"
         style="fill:#999999" />
      <path
         d="m 598.65,775.27 -1.35,4.83 c 1.74,-2.47 3.34,-4.75 5.55,-6.67 1.38,-1.2 2.89,-1.65 4.74,-1.45 0.58,0.06 1.35,0.08 1.76,0.54 0.11,0.12 0.11,0.52 0,0.62 -0.79,0.73 -1.98,-0.05 -3.93,1.35 -1.95,1.4 -3.4,2.91 -4.79,4.79 -3.07,4.15 -5.4,8.67 -7.22,13.52 -0.16,0.44 -0.59,0.88 -1.1,0.7 -1.1,-0.41 -2.75,-1.26 -2.32,-2.69 0.75,-2.48 1.63,-4.75 2.28,-7.39 l -8.45,10.04 c -2.53,3.01 -5.36,5.54 -8.56,7.83 -2.2,1.58 -4.55,2.81 -7.12,3.49 -2.57,0.68 -5.01,0.14 -7.17,-1.36 -2,-1.38 -3.4,-3.17 -4.02,-5.59 -1.55,-6.02 1.61,-13.73 4.7,-18.98 4.96,-8.43 12.63,-16.63 21.66,-20.69 2.04,-0.92 4.17,-1.47 6.41,-1.55 1.21,-0.05 2.18,0.66 3.2,1.14 1.75,0.81 2.68,2.31 2.39,4.37 -0.53,3.68 -2.41,7.18 -5.18,9.68 -0.83,0.75 -1.85,1.22 -2.9,1.31 -0.97,0.09 -1.98,-0.49 -1.98,-1.45 2.36,-1.14 8.17,-9.69 6.92,-12.22 -3.11,-0.47 -8.57,2.64 -11.09,4.45 -4.59,3.29 -8.44,7.25 -11.76,11.81 -2.57,3.52 -4.71,7.14 -6.33,11.17 -1.59,3.95 -2.95,9.09 -1.34,13.14 0.44,1.11 1.34,1.51 2.51,1.4 2.18,-0.22 4.17,-0.98 6.12,-2.02 9.27,-4.95 18.04,-14.03 24.28,-22.42 0.63,-0.85 0.51,-2.17 0.94,-3.04 0.43,-0.87 1.44,-0.67 2.18,-0.35 0.62,0.28 1.24,0.84 1,1.69 z"
         id="path12"
         style="fill:#999999" />
      <path
         d="m 555.93,745.65 c -3.98,1.59 -9.94,4.72 -12.44,7.83 v 0.79 c -0.77,0.37 -1.96,-0.06 -1.99,-1.08 -0.08,-2.08 3.55,-4.62 5.2,-5.67 3.4,-2.16 7.04,-3.73 10.77,-5.18 l 5.85,-12.39 1.69,-3.66 c -7.28,2.36 -16.73,6.19 -22.44,11.13 -0.94,0.82 -3.2,3.15 -2.6,4.34 0.17,0.34 0.62,0.68 0.99,0.91 l 0.32,0.21 c 0.08,0.05 -0.25,0.31 -0.37,0.35 -1.32,0.4 -3.02,-0.49 -3.42,-1.94 -0.88,-3.18 3.62,-6.83 5.94,-8.42 8.51,-5.83 20.07,-9.67 30.12,-11.88 5.67,-1.25 11.27,-1.98 17.07,-2.21 5.22,-0.21 14.18,0.23 19.06,2.37 -6.8,-0.53 -13.14,-0.73 -19.76,-0.1 -7.43,0.71 -14.59,2.18 -21.79,4.26 0.65,1 0.43,1.82 0.02,2.76 l -5.39,12.38 5.92,-1.59 c 1.35,-0.36 2.72,-0.64 4.1,-0.83 0.83,-0.12 1.34,0.59 1.39,1.22 0.08,0.86 -0.6,1.17 -1.44,1.29 -3.87,0.56 -7.55,1.67 -11.26,2.94 -2.85,6.72 -5.54,13.29 -7.83,20.16 -0.38,1.15 -2.01,5.37 -0.5,5.45 0.17,0.67 -0.74,1.16 -1.46,1.1 -1.74,-0.15 -2.89,-1.69 -2.82,-3.46 0.06,-1.49 0.35,-2.92 0.81,-4.36 1.15,-3.62 2.4,-7.07 3.82,-10.6 l 2.46,-6.12 z"
         id="path13"
         style="fill:#999999" />
      <path
         d="m 572.48,755.21 c -1.12,0.32 -2.55,-0.4 -3,-1.37 -1.27,-2.76 2.51,-9.53 3.93,-12.04 0.56,-0.99 1.45,-1.52 2.57,-0.9 0.72,0.2 1.11,0.98 0.73,1.66 -1.76,3.14 -3.18,6.39 -4.13,10 3.17,-2.4 5.64,-5.24 7.99,-8.3 1.51,-5.7 5.42,-14.71 9.35,-18.9 0.82,-0.87 1.84,-0.86 2.85,-0.46 0.83,0.33 1.42,0.87 1.33,1.85 -0.17,1.83 -0.8,3.48 -1.67,5.07 -2.18,4.04 -4.86,7.55 -7.85,11.03 -0.88,2.36 -2.61,7.2 -2.24,9.59 1.97,-0.73 6.58,-6.43 7.21,-8.06 2.03,-5.23 3.6,-10.45 6.52,-15.24 0.9,-1.47 1.72,-2.91 2.87,-4.12 0.79,-0.84 1.74,-0.93 2.74,-0.52 0.82,0.34 1.33,0.87 1.15,1.85 -0.93,5.06 -5.58,10.76 -8.32,15.06 -0.97,1.52 -3.15,8.22 -2.63,10.22 3.68,-1.94 7.85,-7.26 9.9,-10.86 1.98,-0.02 -1.45,4.94 -1.86,5.54 -1.64,2.37 -3.41,4.58 -5.6,6.44 -0.8,0.68 -1.75,1.02 -2.82,0.79 -2.17,-0.45 -3.05,-2.95 -2.77,-5.17 -1.07,1.54 -3.89,5.76 -5.7,6.06 -1.81,0.3 -3.38,-1.03 -3.64,-2.78 -0.16,-1.09 -0.06,-2.18 0.02,-3.32 -1.39,1.71 -4.76,6.23 -6.94,6.86 z m 23.73,-19.11 c 2.13,-2.61 3.85,-5.63 4.59,-9.01 -2.07,2.82 -3.35,5.88 -4.59,9.01 z m -9.57,1.51 c 1.57,-1.74 5.66,-8.16 5.39,-10.42 -1.22,1.5 -2.13,3.03 -2.97,4.72 -0.91,1.84 -1.86,3.59 -2.43,5.7 z"
         id="path14"
         style="fill:#999999" />
      <path
         d="m 576.01,738.93 c -1.86,0.13 0.84,-8.43 5.19,-7.6 0.43,0.08 0.71,1.06 0.45,1.43 -1.21,1.77 -2.52,3.28 -3.89,4.92 -0.45,0.54 -0.84,1.19 -1.76,1.25 z"
         id="path15"
         style="fill:#999999" />
    </g>
  </g>
</svg>
