<svg xmlns="http://www.w3.org/2000/svg" viewBox="535 666 200 42" fill="#000000" width="100%" height="100%">
<g
     id="g52">
    <g
       id="g24">
      <path
         d="m 539.88,675.93 c 0.92,-1.66 2.21,-2.95 3.86,-3.87 1.65,-0.92 3.53,-1.39 5.64,-1.39 2.56,0 4.72,0.62 6.48,1.86 1.76,1.24 2.92,2.96 3.49,5.15 h -5.76 c -0.39,-0.71 -0.94,-1.26 -1.66,-1.63 -0.72,-0.37 -1.57,-0.56 -2.55,-0.56 -1.69,0 -3.04,0.55 -4.06,1.66 -1.02,1.11 -1.52,2.59 -1.52,4.44 0,1.97 0.53,3.51 1.6,4.62 1.07,1.11 2.54,1.66 4.41,1.66 1.28,0 2.37,-0.33 3.26,-0.99 0.89,-0.66 1.53,-1.6 1.92,-2.82 h -6.62 v -3.81 h 11.35 v 4.85 c -0.39,1.3 -1.04,2.51 -1.97,3.63 -0.93,1.12 -2.1,2.02 -3.52,2.71 -1.42,0.69 -3.03,1.04 -4.82,1.04 -2.12,0 -4,-0.46 -5.66,-1.39 -1.66,-0.93 -2.95,-2.21 -3.87,-3.86 -0.93,-1.65 -1.39,-3.53 -1.39,-5.64 0,-2.11 0.46,-4 1.39,-5.66 z"
         id="path16" />
      <path
         d="m 573.53,692.32 -4.45,-8.08 h -1.25 v 8.08 h -5.21 v -21.41 h 8.75 c 1.69,0 3.13,0.29 4.32,0.88 1.19,0.59 2.08,1.4 2.67,2.42 0.59,1.03 0.88,2.17 0.88,3.43 0,1.42 -0.4,2.69 -1.2,3.81 -0.8,1.12 -1.99,1.91 -3.55,2.38 l 4.94,8.48 h -5.89 z m -5.7,-11.77 h 3.23 c 0.96,0 1.67,-0.23 2.15,-0.7 0.48,-0.47 0.72,-1.13 0.72,-1.98 0,-0.85 -0.24,-1.49 -0.72,-1.97 -0.48,-0.48 -1.2,-0.72 -2.15,-0.72 h -3.23 z"
         id="path17" />
      <path
         d="m 583,675.93 c 0.92,-1.66 2.21,-2.95 3.86,-3.87 1.65,-0.92 3.53,-1.39 5.64,-1.39 2.56,0 4.72,0.62 6.48,1.86 1.76,1.24 2.92,2.96 3.49,5.15 h -5.76 c -0.39,-0.71 -0.94,-1.26 -1.66,-1.63 -0.72,-0.37 -1.57,-0.56 -2.55,-0.56 -1.69,0 -3.04,0.55 -4.06,1.66 -1.02,1.11 -1.52,2.59 -1.52,4.44 0,1.97 0.53,3.51 1.6,4.62 1.07,1.11 2.54,1.66 4.41,1.66 1.28,0 2.37,-0.33 3.26,-0.99 0.89,-0.66 1.53,-1.6 1.92,-2.82 h -6.62 v -3.81 h 11.35 v 4.85 c -0.39,1.3 -1.04,2.51 -1.97,3.63 -0.93,1.12 -2.1,2.02 -3.52,2.71 -1.42,0.69 -3.03,1.04 -4.82,1.04 -2.12,0 -4,-0.46 -5.66,-1.39 -1.66,-0.93 -2.95,-2.21 -3.87,-3.86 -0.93,-1.65 -1.39,-3.53 -1.39,-5.64 0,-2.11 0.46,-4 1.39,-5.66 z"
         id="path18" />
      <path
         d="m 613.28,675.93 c 0.92,-1.66 2.21,-2.95 3.86,-3.87 1.65,-0.92 3.53,-1.39 5.64,-1.39 2.56,0 4.72,0.62 6.48,1.86 1.76,1.24 2.92,2.96 3.49,5.15 h -5.76 c -0.39,-0.71 -0.94,-1.26 -1.66,-1.63 -0.72,-0.37 -1.57,-0.56 -2.55,-0.56 -1.69,0 -3.04,0.55 -4.06,1.66 -1.02,1.11 -1.52,2.59 -1.52,4.44 0,1.97 0.53,3.51 1.6,4.62 1.07,1.11 2.54,1.66 4.41,1.66 1.28,0 2.37,-0.33 3.26,-0.99 0.89,-0.66 1.53,-1.6 1.92,-2.82 h -6.62 v -3.81 h 11.35 v 4.85 c -0.39,1.3 -1.04,2.51 -1.97,3.63 -0.93,1.12 -2.1,2.02 -3.52,2.71 -1.42,0.69 -3.03,1.04 -4.82,1.04 -2.12,0 -4,-0.46 -5.66,-1.39 -1.66,-0.93 -2.95,-2.21 -3.87,-3.86 -0.93,-1.65 -1.39,-3.53 -1.39,-5.64 0,-2.11 0.46,-4 1.39,-5.66 z"
         id="path19" />
      <path
         d="m 646.93,692.32 -4.45,-8.08 h -1.25 v 8.08 h -5.21 v -21.41 h 8.75 c 1.69,0 3.13,0.29 4.32,0.88 1.19,0.59 2.08,1.4 2.67,2.42 0.59,1.03 0.88,2.17 0.88,3.43 0,1.42 -0.4,2.69 -1.2,3.81 -0.8,1.12 -1.99,1.91 -3.55,2.38 l 4.94,8.48 h -5.89 z m -5.7,-11.77 h 3.23 c 0.96,0 1.67,-0.23 2.15,-0.7 0.48,-0.47 0.72,-1.13 0.72,-1.98 0,-0.85 -0.24,-1.49 -0.72,-1.97 -0.48,-0.48 -1.2,-0.72 -2.15,-0.72 h -3.23 z"
         id="path20" />
      <path
         d="m 660.49,691.13 c -1.68,-0.94 -3.01,-2.24 -3.99,-3.92 -0.99,-1.68 -1.48,-3.56 -1.48,-5.66 0,-2.1 0.49,-3.97 1.48,-5.64 0.99,-1.67 2.32,-2.97 3.99,-3.9 1.67,-0.93 3.52,-1.4 5.54,-1.4 2.02,0 3.86,0.47 5.53,1.4 1.68,0.94 3,2.24 3.97,3.9 0.96,1.67 1.45,3.55 1.45,5.64 0,2.09 -0.49,3.98 -1.46,5.66 -0.97,1.68 -2.3,2.98 -3.97,3.92 -1.67,0.94 -3.51,1.4 -5.52,1.4 -2.01,0 -3.86,-0.47 -5.54,-1.4 z m 9.64,-5.09 c 1.03,-1.12 1.54,-2.61 1.54,-4.48 0,-1.87 -0.51,-3.36 -1.54,-4.48 -1.03,-1.12 -2.39,-1.68 -4.1,-1.68 -1.71,0 -3.11,0.56 -4.13,1.68 -1.03,1.12 -1.54,2.61 -1.54,4.48 0,1.87 0.51,3.36 1.54,4.48 1.03,1.12 2.4,1.68 4.13,1.68 1.73,0 3.07,-0.56 4.1,-1.68 z"
         id="path21" />
      <path
         d="m 684.99,670.91 v 12.78 c 0,1.28 0.31,2.27 0.95,2.96 0.63,0.69 1.56,1.04 2.77,1.04 1.21,0 2.16,-0.35 2.81,-1.04 0.65,-0.69 0.98,-1.68 0.98,-2.96 v -12.78 h 5.21 v 12.78 c 0,1.91 -0.41,3.53 -1.22,4.85 -0.81,1.32 -1.91,2.32 -3.28,2.99 -1.37,0.67 -2.9,1.01 -4.59,1.01 -1.69,0 -3.2,-0.33 -4.53,-0.99 -1.33,-0.66 -2.38,-1.66 -3.16,-2.99 -0.77,-1.33 -1.16,-2.95 -1.16,-4.86 v -12.78 h 5.22 z"
         id="path22" />
      <path
         d="m 716.83,681.2 c -0.57,1.03 -1.44,1.86 -2.62,2.49 -1.18,0.63 -2.64,0.95 -4.39,0.95 h -3.23 v 7.69 h -5.21 v -21.41 h 8.45 c 1.71,0 3.15,0.29 4.33,0.88 1.18,0.59 2.06,1.4 2.65,2.44 0.59,1.04 0.88,2.23 0.88,3.57 0,1.24 -0.28,2.37 -0.85,3.4 z m -5.18,-1.39 c 0.49,-0.49 0.73,-1.16 0.73,-2.01 0,-0.85 -0.24,-1.52 -0.73,-2.01 -0.49,-0.49 -1.23,-0.73 -2.23,-0.73 h -2.84 v 5.49 h 2.84 c 1,0 1.74,-0.24 2.23,-0.73 z"
         id="path23" />
      <path
         d="m 725.61,675.03 v 4.45 h 6.98 v 3.93 h -6.98 v 4.79 h 7.9 v 4.12 H 720.4 v -21.41 h 13.11 v 4.12 z"
         id="path24" />
    </g>
    <g
       id="g51">
      <path
         d="m 543.89,695.47 v 1.49 h -3.17 v 1.67 h 2.37 v 1.44 h -2.37 v 3.17 h -1.89 v -7.77 z"
         id="path25" />
      <path
         d="m 546.06,702.94 c -0.48,-0.26 -0.86,-0.63 -1.14,-1.11 -0.28,-0.48 -0.41,-1.04 -0.41,-1.68 0,-0.64 0.14,-1.19 0.42,-1.68 0.28,-0.48 0.66,-0.85 1.15,-1.11 0.49,-0.26 1.03,-0.39 1.64,-0.39 0.61,0 1.15,0.13 1.64,0.39 0.49,0.26 0.87,0.63 1.15,1.11 0.28,0.48 0.42,1.04 0.42,1.68 0,0.64 -0.14,1.19 -0.43,1.68 -0.28,0.48 -0.67,0.85 -1.16,1.11 -0.49,0.26 -1.04,0.39 -1.64,0.39 -0.6,0 -1.15,-0.13 -1.63,-0.39 z m 2.56,-1.64 c 0.25,-0.27 0.38,-0.65 0.38,-1.15 0,-0.5 -0.12,-0.88 -0.37,-1.15 -0.25,-0.27 -0.55,-0.4 -0.91,-0.4 -0.36,0 -0.68,0.13 -0.92,0.4 -0.24,0.27 -0.37,0.65 -0.37,1.15 0,0.5 0.12,0.88 0.36,1.15 0.24,0.27 0.54,0.4 0.9,0.4 0.36,0 0.67,-0.13 0.92,-0.4 z"
         id="path26" />
      <path
         d="m 553.11,702.94 c -0.48,-0.26 -0.86,-0.63 -1.14,-1.11 -0.28,-0.48 -0.41,-1.04 -0.41,-1.68 0,-0.64 0.14,-1.19 0.42,-1.68 0.28,-0.48 0.66,-0.85 1.15,-1.11 0.49,-0.26 1.03,-0.39 1.64,-0.39 0.61,0 1.15,0.13 1.64,0.39 0.49,0.26 0.87,0.63 1.15,1.11 0.28,0.48 0.42,1.04 0.42,1.68 0,0.64 -0.14,1.19 -0.43,1.68 -0.28,0.48 -0.67,0.85 -1.16,1.11 -0.49,0.26 -1.04,0.39 -1.64,0.39 -0.6,0 -1.15,-0.13 -1.63,-0.39 z m 2.56,-1.64 c 0.25,-0.27 0.38,-0.65 0.38,-1.15 0,-0.5 -0.12,-0.88 -0.37,-1.15 -0.25,-0.27 -0.55,-0.4 -0.91,-0.4 -0.36,0 -0.68,0.13 -0.92,0.4 -0.24,0.27 -0.37,0.65 -0.37,1.15 0,0.5 0.12,0.88 0.36,1.15 0.24,0.27 0.54,0.4 0.9,0.4 0.36,0 0.67,-0.13 0.92,-0.4 z"
         id="path27" />
      <path
         d="m 558.96,698.47 c 0.24,-0.48 0.57,-0.85 0.98,-1.11 0.41,-0.26 0.87,-0.39 1.38,-0.39 0.41,0 0.78,0.08 1.11,0.25 0.34,0.17 0.6,0.4 0.79,0.69 v -2.87 h 1.89 v 8.19 h -1.89 v -0.89 c -0.18,0.3 -0.43,0.53 -0.76,0.71 -0.33,0.18 -0.71,0.27 -1.15,0.27 -0.51,0 -0.97,-0.13 -1.38,-0.39 -0.41,-0.26 -0.74,-0.63 -0.98,-1.12 -0.24,-0.48 -0.36,-1.04 -0.36,-1.68 0,-0.64 0.12,-1.19 0.36,-1.67 z m 3.88,0.56 c -0.26,-0.27 -0.58,-0.41 -0.96,-0.41 -0.38,0 -0.7,0.13 -0.96,0.4 -0.26,0.27 -0.39,0.64 -0.39,1.11 0,0.47 0.13,0.85 0.39,1.12 0.26,0.27 0.58,0.41 0.96,0.41 0.38,0 0.7,-0.14 0.96,-0.41 0.26,-0.27 0.39,-0.65 0.39,-1.12 0,-0.47 -0.13,-0.84 -0.39,-1.12 z"
         id="path28" />
      <path
         d="m 573.93,703.24 -0.68,-0.93 c -0.21,0.3 -0.5,0.55 -0.86,0.73 -0.36,0.18 -0.76,0.28 -1.2,0.28 -0.5,0 -0.94,-0.11 -1.32,-0.32 -0.38,-0.21 -0.67,-0.5 -0.87,-0.87 -0.2,-0.37 -0.3,-0.77 -0.3,-1.22 0,-0.6 0.17,-1.12 0.51,-1.54 0.34,-0.42 0.77,-0.68 1.28,-0.76 -0.18,-0.25 -0.32,-0.5 -0.41,-0.74 -0.09,-0.24 -0.13,-0.49 -0.13,-0.76 0,-0.33 0.09,-0.65 0.27,-0.94 0.18,-0.3 0.44,-0.53 0.78,-0.71 0.34,-0.18 0.75,-0.27 1.23,-0.27 0.66,0 1.19,0.15 1.58,0.45 0.39,0.3 0.63,0.68 0.71,1.14 0.04,0.2 0.07,0.4 0.07,0.61 0,0.16 0,0.28 -0.02,0.37 h -1.79 c 0.03,-0.13 0.04,-0.28 0.02,-0.45 0,-0.16 -0.06,-0.29 -0.15,-0.39 -0.09,-0.1 -0.23,-0.15 -0.39,-0.15 -0.15,0 -0.27,0.05 -0.36,0.14 -0.09,0.1 -0.14,0.21 -0.14,0.35 0,0.1 0.02,0.21 0.07,0.32 0.05,0.11 0.13,0.24 0.25,0.4 l 3.86,5.26 h -2 z m -2.09,-1.74 c 0.17,-0.17 0.25,-0.38 0.25,-0.64 0,-0.26 -0.09,-0.46 -0.25,-0.63 -0.16,-0.17 -0.38,-0.25 -0.63,-0.25 -0.25,0 -0.46,0.08 -0.63,0.25 -0.17,0.17 -0.25,0.37 -0.25,0.63 0,0.26 0.08,0.47 0.25,0.64 0.17,0.17 0.37,0.25 0.63,0.25 0.26,0 0.46,-0.08 0.63,-0.25 z"
         id="path29" />
      <path
         d="m 585.02,699.92 c 0.27,0.35 0.41,0.75 0.41,1.2 0,0.65 -0.23,1.16 -0.68,1.54 -0.45,0.38 -1.09,0.57 -1.9,0.57 h -3.62 v -7.77 h 3.5 c 0.79,0 1.41,0.18 1.85,0.54 0.45,0.36 0.67,0.85 0.67,1.47 0,0.46 -0.12,0.84 -0.36,1.14 -0.24,0.3 -0.56,0.51 -0.96,0.63 0.45,0.1 0.81,0.32 1.08,0.67 z m -3.9,-1.3 h 1.24 c 0.31,0 0.55,-0.07 0.71,-0.21 0.17,-0.14 0.25,-0.34 0.25,-0.61 0,-0.27 -0.08,-0.48 -0.25,-0.63 -0.17,-0.14 -0.4,-0.22 -0.71,-0.22 h -1.24 v 1.66 z m 2.13,2.89 c 0.17,-0.15 0.26,-0.36 0.26,-0.64 0,-0.28 -0.09,-0.49 -0.27,-0.65 -0.18,-0.16 -0.43,-0.24 -0.75,-0.24 h -1.37 v 1.75 h 1.39 c 0.32,0 0.56,-0.07 0.74,-0.22 z"
         id="path30" />
      <path
         d="m 592.31,700.58 h -4.28 c 0.03,0.39 0.15,0.69 0.36,0.9 0.21,0.21 0.48,0.31 0.81,0.31 0.47,0 0.8,-0.2 0.98,-0.6 h 2.01 c -0.1,0.41 -0.29,0.77 -0.56,1.1 -0.27,0.32 -0.61,0.58 -1.01,0.76 -0.41,0.18 -0.86,0.28 -1.36,0.28 -0.6,0 -1.14,-0.13 -1.62,-0.39 -0.47,-0.26 -0.84,-0.63 -1.11,-1.11 -0.27,-0.48 -0.4,-1.04 -0.4,-1.68 0,-0.64 0.13,-1.2 0.39,-1.68 0.26,-0.48 0.63,-0.85 1.1,-1.11 0.47,-0.26 1.01,-0.39 1.63,-0.39 0.62,0 1.13,0.13 1.59,0.38 0.46,0.25 0.83,0.61 1.09,1.07 0.26,0.46 0.39,1 0.39,1.62 0,0.17 -0.01,0.35 -0.03,0.54 z m -1.9,-0.96 c 0,-0.35 -0.11,-0.63 -0.33,-0.83 -0.22,-0.2 -0.5,-0.3 -0.83,-0.3 -0.33,0 -0.6,0.1 -0.81,0.29 -0.22,0.2 -0.35,0.47 -0.4,0.84 h 2.38 z"
         id="path31" />
      <path
         d="m 596.12,701.47 1.34,-4.4 h 2.03 l -2.19,6.18 h -2.35 l -2.19,-6.18 h 2.03 l 1.34,4.4 z"
         id="path32" />
      <path
         d="m 606.05,700.58 h -4.28 c 0.03,0.39 0.15,0.69 0.36,0.9 0.21,0.21 0.48,0.31 0.81,0.31 0.47,0 0.8,-0.2 0.98,-0.6 h 2.01 c -0.1,0.41 -0.29,0.77 -0.56,1.1 -0.27,0.32 -0.61,0.58 -1.01,0.76 -0.41,0.18 -0.86,0.28 -1.36,0.28 -0.6,0 -1.14,-0.13 -1.62,-0.39 -0.47,-0.26 -0.84,-0.63 -1.11,-1.11 -0.27,-0.48 -0.4,-1.04 -0.4,-1.68 0,-0.64 0.13,-1.2 0.39,-1.68 0.26,-0.48 0.63,-0.85 1.1,-1.11 0.47,-0.26 1.01,-0.39 1.63,-0.39 0.62,0 1.13,0.13 1.59,0.38 0.46,0.25 0.83,0.61 1.09,1.07 0.26,0.46 0.39,1 0.39,1.62 0,0.17 -0.01,0.35 -0.03,0.54 z m -1.9,-0.96 c 0,-0.35 -0.11,-0.63 -0.33,-0.83 -0.22,-0.2 -0.5,-0.3 -0.83,-0.3 -0.33,0 -0.6,0.1 -0.81,0.29 -0.22,0.2 -0.35,0.47 -0.4,0.84 h 2.38 z"
         id="path33" />
      <path
         d="m 609.81,697.31 c 0.34,-0.21 0.7,-0.32 1.1,-0.32 v 2 h -0.52 c -0.47,0 -0.83,0.1 -1.06,0.3 -0.24,0.2 -0.35,0.56 -0.35,1.07 v 2.87 h -1.89 v -6.18 h 1.89 v 1.11 c 0.22,-0.36 0.5,-0.65 0.84,-0.86 z"
         id="path34" />
      <path
         d="m 611.8,698.47 c 0.24,-0.48 0.57,-0.85 0.98,-1.11 0.41,-0.26 0.87,-0.39 1.38,-0.39 0.44,0 0.82,0.09 1.15,0.27 0.33,0.18 0.58,0.41 0.76,0.7 v -0.87 h 1.89 v 6.18 h -1.89 v -0.87 c -0.18,0.29 -0.44,0.52 -0.77,0.7 -0.33,0.18 -0.71,0.27 -1.15,0.27 -0.5,0 -0.96,-0.13 -1.37,-0.39 -0.41,-0.26 -0.74,-0.63 -0.98,-1.12 -0.24,-0.48 -0.36,-1.04 -0.36,-1.68 0,-0.64 0.12,-1.19 0.36,-1.67 z m 3.88,0.56 c -0.26,-0.27 -0.58,-0.41 -0.96,-0.41 -0.38,0 -0.7,0.13 -0.96,0.4 -0.26,0.27 -0.39,0.64 -0.39,1.11 0,0.47 0.13,0.85 0.39,1.12 0.26,0.27 0.58,0.41 0.96,0.41 0.38,0 0.7,-0.14 0.96,-0.41 0.26,-0.27 0.39,-0.65 0.39,-1.12 0,-0.47 -0.13,-0.84 -0.39,-1.12 z"
         id="path35" />
      <path
         d="m 622.83,697.24 c 0.33,0.18 0.58,0.41 0.76,0.7 v -0.87 h 1.89 v 6.16 c 0,0.57 -0.11,1.08 -0.34,1.54 -0.23,0.46 -0.57,0.83 -1.03,1.1 -0.46,0.27 -1.03,0.41 -1.72,0.41 -0.91,0 -1.66,-0.22 -2.22,-0.65 -0.57,-0.43 -0.89,-1.02 -0.97,-1.75 h 1.87 c 0.06,0.24 0.2,0.42 0.42,0.56 0.22,0.14 0.49,0.2 0.82,0.2 0.39,0 0.7,-0.11 0.93,-0.34 0.23,-0.23 0.35,-0.58 0.35,-1.08 v -0.87 c -0.18,0.29 -0.44,0.52 -0.76,0.7 -0.32,0.18 -0.7,0.27 -1.14,0.27 -0.51,0 -0.97,-0.13 -1.38,-0.39 -0.41,-0.26 -0.74,-0.63 -0.98,-1.12 -0.24,-0.48 -0.36,-1.04 -0.36,-1.68 0,-0.64 0.12,-1.19 0.36,-1.67 0.24,-0.48 0.57,-0.85 0.98,-1.11 0.41,-0.26 0.87,-0.39 1.38,-0.39 0.44,0 0.82,0.09 1.15,0.27 z m 0.36,1.79 c -0.26,-0.27 -0.58,-0.41 -0.96,-0.41 -0.38,0 -0.7,0.13 -0.96,0.4 -0.26,0.27 -0.39,0.64 -0.39,1.11 0,0.47 0.13,0.85 0.39,1.12 0.26,0.27 0.58,0.41 0.96,0.41 0.38,0 0.7,-0.14 0.96,-0.41 0.26,-0.27 0.39,-0.65 0.39,-1.12 0,-0.47 -0.13,-0.84 -0.39,-1.12 z"
         id="path36" />
      <path
         d="m 632.64,700.58 h -4.28 c 0.03,0.39 0.15,0.69 0.36,0.9 0.21,0.21 0.48,0.31 0.81,0.31 0.47,0 0.8,-0.2 0.98,-0.6 h 2.01 c -0.1,0.41 -0.29,0.77 -0.56,1.1 -0.27,0.32 -0.61,0.58 -1.01,0.76 -0.41,0.18 -0.86,0.28 -1.36,0.28 -0.6,0 -1.14,-0.13 -1.62,-0.39 -0.47,-0.26 -0.84,-0.63 -1.11,-1.11 -0.27,-0.48 -0.4,-1.04 -0.4,-1.68 0,-0.64 0.13,-1.2 0.39,-1.68 0.26,-0.48 0.63,-0.85 1.1,-1.11 0.47,-0.26 1.01,-0.39 1.63,-0.39 0.62,0 1.13,0.13 1.59,0.38 0.46,0.25 0.83,0.61 1.09,1.07 0.26,0.46 0.39,1 0.39,1.62 0,0.17 -0.01,0.35 -0.03,0.54 z m -1.91,-0.96 c 0,-0.35 -0.11,-0.63 -0.33,-0.83 -0.22,-0.2 -0.5,-0.3 -0.83,-0.3 -0.33,0 -0.6,0.1 -0.81,0.29 -0.22,0.2 -0.35,0.47 -0.4,0.84 h 2.38 z"
         id="path37" />
      <path
         d="m 642.95,695.47 v 7.77 h -1.89 v -3.22 h -2.94 v 3.22 h -1.89 v -7.77 h 1.89 v 3.05 h 2.94 v -3.05 z"
         id="path38" />
      <path
         d="m 650.41,697.06 v 6.18 h -1.89 v -0.84 c -0.19,0.27 -0.45,0.49 -0.78,0.66 -0.33,0.17 -0.69,0.25 -1.09,0.25 -0.47,0 -0.89,-0.11 -1.25,-0.32 -0.36,-0.21 -0.64,-0.51 -0.84,-0.91 -0.2,-0.4 -0.3,-0.87 -0.3,-1.41 v -3.61 h 1.88 v 3.35 c 0,0.41 0.11,0.73 0.32,0.96 0.21,0.23 0.5,0.34 0.86,0.34 0.36,0 0.66,-0.11 0.87,-0.34 0.21,-0.23 0.32,-0.55 0.32,-0.96 v -3.35 h 1.89 z"
         id="path39" />
      <path
         d="m 654.42,697.24 c 0.33,-0.18 0.71,-0.27 1.14,-0.27 0.51,0 0.97,0.13 1.38,0.39 0.41,0.26 0.74,0.63 0.98,1.11 0.24,0.48 0.36,1.04 0.36,1.67 0,0.63 -0.12,1.19 -0.36,1.68 -0.24,0.48 -0.57,0.86 -0.98,1.12 -0.41,0.26 -0.87,0.39 -1.38,0.39 -0.44,0 -0.82,-0.09 -1.14,-0.26 -0.32,-0.17 -0.58,-0.4 -0.76,-0.69 v 0.86 h -1.89 v -8.19 h 1.89 v 2.89 c 0.18,-0.29 0.43,-0.52 0.76,-0.7 z m 1.55,1.79 c -0.26,-0.27 -0.58,-0.4 -0.97,-0.4 -0.39,0 -0.7,0.14 -0.96,0.41 -0.26,0.27 -0.39,0.65 -0.39,1.12 0,0.47 0.13,0.84 0.39,1.12 0.26,0.27 0.58,0.41 0.96,0.41 0.38,0 0.7,-0.14 0.96,-0.41 0.27,-0.28 0.4,-0.65 0.4,-1.12 0,-0.47 -0.13,-0.84 -0.39,-1.11 z"
         id="path40" />
      <path
         d="m 663.71,704.67 h -1.89 v -10.45 h 1.89 z"
         id="path41" />
      <path
         d="m 669.51,695.47 v 7.77 h -1.89 v -7.77 z"
         id="path42" />
      <path
         d="m 675.94,695.47 v 1.49 h -3.17 v 1.67 h 2.37 v 1.44 h -2.37 v 3.17 h -1.89 v -7.77 z"
         id="path43" />
      <path
         d="m 678.22,703.04 c -0.45,-0.18 -0.81,-0.46 -1.08,-0.82 -0.27,-0.36 -0.41,-0.8 -0.43,-1.31 h 2.01 c 0.03,0.3 0.13,0.52 0.3,0.67 0.17,0.16 0.39,0.23 0.66,0.23 0.27,0 0.5,-0.07 0.66,-0.2 0.16,-0.14 0.24,-0.32 0.24,-0.55 0,-0.19 -0.06,-0.35 -0.19,-0.48 -0.13,-0.13 -0.29,-0.23 -0.48,-0.31 -0.19,-0.08 -0.46,-0.17 -0.8,-0.28 -0.5,-0.16 -0.91,-0.31 -1.23,-0.46 -0.32,-0.15 -0.59,-0.38 -0.82,-0.69 -0.23,-0.3 -0.34,-0.7 -0.34,-1.18 0,-0.72 0.26,-1.29 0.79,-1.7 0.52,-0.41 1.21,-0.61 2.05,-0.61 0.84,0 1.55,0.2 2.07,0.61 0.52,0.41 0.8,0.98 0.84,1.71 h -2.05 c -0.01,-0.27 -0.11,-0.47 -0.27,-0.61 -0.17,-0.14 -0.39,-0.22 -0.66,-0.22 -0.23,0 -0.41,0.06 -0.55,0.19 -0.14,0.13 -0.21,0.31 -0.21,0.54 0,0.25 0.12,0.45 0.35,0.59 0.24,0.14 0.6,0.29 1.11,0.45 0.5,0.17 0.91,0.33 1.22,0.49 0.31,0.15 0.58,0.38 0.81,0.68 0.23,0.3 0.34,0.68 0.34,1.14 0,0.46 -0.11,0.84 -0.34,1.21 -0.23,0.36 -0.55,0.65 -0.98,0.86 -0.43,0.21 -0.93,0.32 -1.52,0.32 -0.59,0 -1.08,-0.09 -1.53,-0.28 z"
         id="path44" />
      <path
         d="m 693.24,703.24 h -1.89 l -3.17,-4.79 v 4.79 h -1.89 v -7.77 h 1.89 l 3.17,4.81 v -4.81 h 1.89 z"
         id="path45" />
      <path
         d="m 700.4,700.58 h -4.28 c 0.03,0.39 0.15,0.69 0.36,0.9 0.21,0.21 0.48,0.31 0.81,0.31 0.47,0 0.8,-0.2 0.98,-0.6 h 2.01 c -0.1,0.41 -0.29,0.77 -0.56,1.1 -0.27,0.32 -0.61,0.58 -1.01,0.76 -0.41,0.18 -0.86,0.28 -1.36,0.28 -0.6,0 -1.14,-0.13 -1.62,-0.39 -0.47,-0.26 -0.84,-0.63 -1.11,-1.11 -0.27,-0.48 -0.4,-1.04 -0.4,-1.68 0,-0.64 0.13,-1.2 0.39,-1.68 0.26,-0.48 0.63,-0.85 1.1,-1.11 0.47,-0.26 1.01,-0.39 1.63,-0.39 0.62,0 1.13,0.13 1.59,0.38 0.46,0.25 0.83,0.61 1.09,1.07 0.26,0.46 0.39,1 0.39,1.62 0,0.17 -0.01,0.35 -0.03,0.54 z m -1.9,-0.96 c 0,-0.35 -0.11,-0.63 -0.33,-0.83 -0.22,-0.2 -0.5,-0.3 -0.83,-0.3 -0.33,0 -0.6,0.1 -0.81,0.29 -0.22,0.2 -0.35,0.47 -0.4,0.84 h 2.38 z"
         id="path46" />
      <path
         d="m 704.88,701.63 v 1.6 h -0.96 c -0.69,0 -1.22,-0.17 -1.6,-0.5 -0.38,-0.34 -0.58,-0.88 -0.58,-1.64 v -2.46 h -0.75 v -1.57 h 0.75 v -1.5 h 1.89 v 1.5 h 1.24 v 1.57 h -1.24 v 2.48 c 0,0.18 0.04,0.32 0.13,0.4 0.09,0.08 0.24,0.12 0.44,0.12 z"
         id="path47" />
      <path
         d="m 714.79,697.06 -1.67,6.18 h -2.09 l -0.97,-4.01 -1.01,4.01 h -2.08 l -1.68,-6.18 h 1.89 l 0.87,4.42 1.04,-4.42 h 2 l 1.05,4.39 0.86,-4.39 h 1.78 z"
         id="path48" />
      <path
         d="m 716.69,702.94 c -0.48,-0.26 -0.86,-0.63 -1.14,-1.11 -0.28,-0.48 -0.41,-1.04 -0.41,-1.68 0,-0.64 0.14,-1.19 0.42,-1.68 0.28,-0.48 0.66,-0.85 1.15,-1.11 0.49,-0.26 1.03,-0.39 1.64,-0.39 0.61,0 1.15,0.13 1.64,0.39 0.49,0.26 0.87,0.63 1.15,1.11 0.28,0.48 0.42,1.04 0.42,1.68 0,0.64 -0.14,1.19 -0.43,1.68 -0.28,0.48 -0.67,0.85 -1.16,1.11 -0.49,0.26 -1.04,0.39 -1.64,0.39 -0.6,0 -1.15,-0.13 -1.63,-0.39 z m 2.55,-1.64 c 0.25,-0.27 0.38,-0.65 0.38,-1.15 0,-0.5 -0.12,-0.88 -0.37,-1.15 -0.25,-0.27 -0.55,-0.4 -0.91,-0.4 -0.36,0 -0.68,0.13 -0.92,0.4 -0.24,0.27 -0.37,0.65 -0.37,1.15 0,0.5 0.12,0.88 0.36,1.15 0.24,0.27 0.54,0.4 0.9,0.4 0.36,0 0.67,-0.13 0.92,-0.4 z"
         id="path49" />
      <path
         d="m 725.29,697.31 c 0.34,-0.21 0.7,-0.32 1.1,-0.32 v 2 h -0.52 c -0.47,0 -0.83,0.1 -1.06,0.3 -0.24,0.2 -0.35,0.56 -0.35,1.07 v 2.87 h -1.89 v -6.18 h 1.89 v 1.11 c 0.22,-0.36 0.5,-0.65 0.84,-0.86 z"
         id="path50" />
      <path
         d="m 731.07,703.24 -1.88,-2.59 v 2.59 h -1.89 v -8.19 h 1.89 v 4.53 l 1.87,-2.51 h 2.34 l -2.57,3.1 2.59,3.08 h -2.35 z"
         id="path51" />
    </g>
  </g>
</svg>